<?xml version="1.0" standalone="no"?>
<!DOCTYPE svg PUBLIC "-//W3C//DTD SVG 20010904//EN"
 "http://www.w3.org/TR/2001/REC-SVG-20010904/DTD/svg10.dtd">
<svg version="1.0" xmlns="http://www.w3.org/2000/svg"
 width="1024.000000pt" height="937.000000pt" viewBox="0 0 1024.000000 937.000000"
 preserveAspectRatio="xMidYMid meet">

<g transform="translate(0.000000,937.000000) scale(0.100000,-0.100000)"
fill="#000000" stroke="none">
<path d="M9461 9174 c0 -11 3 -14 6 -6 3 7 2 16 -1 19 -3 4 -6 -2 -5 -13z"/>
<path d="M870 9131 c0 -6 4 -13 10 -16 6 -3 7 1 4 9 -7 18 -14 21 -14 7z"/>
<path d="M786 9045 c-9 -26 -7 -32 5 -12 6 10 9 21 6 23 -2 3 -7 -2 -11 -11z"/>
<path d="M671 8930 c-1 -8 -4 -26 -7 -40 -5 -19 -4 -22 5 -14 7 6 11 24 8 40
-2 16 -5 22 -6 14z"/>
<path d="M5125 8890 c3 -5 15 -10 26 -10 10 0 19 5 19 10 0 6 -12 10 -26 10
-14 0 -23 -4 -19 -10z"/>
<path d="M4731 8874 c0 -11 3 -14 6 -6 3 7 2 16 -1 19 -3 4 -6 -2 -5 -13z"/>
<path d="M918 8873 c7 -3 16 -2 19 1 4 3 -2 6 -13 5 -11 0 -14 -3 -6 -6z"/>
<path d="M5580 8861 c0 -6 4 -13 10 -16 6 -3 7 1 4 9 -7 18 -14 21 -14 7z"/>
<path d="M9655 8840 c3 -5 8 -10 11 -10 2 0 4 5 4 10 0 6 -5 10 -11 10 -5 0
-7 -4 -4 -10z"/>
<path d="M5444 8778 c0 -16 2 -16 18 -1 10 9 18 17 18 17 0 1 -8 2 -18 2 -10
0 -18 -8 -18 -18z"/>
<path d="M4650 8781 c0 -6 4 -13 10 -16 6 -3 7 1 4 9 -7 18 -14 21 -14 7z"/>
<path d="M4995 8779 c-4 -6 -5 -12 -2 -15 2 -3 7 2 10 11 7 17 1 20 -8 4z"/>
<path d="M9620 8782 c0 -5 7 -9 15 -9 8 0 12 4 9 9 -3 4 -9 8 -15 8 -5 0 -9
-4 -9 -8z"/>
<path d="M4970 8741 c0 -7 -5 -9 -12 -5 -7 5 -8 3 -3 -5 5 -9 10 -10 18 -2 6
6 8 14 4 18 -4 3 -7 1 -7 -6z"/>
<path d="M4445 8700 c10 -11 23 -20 28 -20 6 0 0 9 -13 20 -13 11 -25 20 -28
20 -3 0 3 -9 13 -20z"/>
<path d="M6271 8710 c0 -8 4 -22 9 -30 12 -18 12 -2 0 25 -6 13 -9 15 -9 5z"/>
<path d="M4820 8584 c-40 -118 -12 -216 72 -260 29 -15 31 -15 24 2 -4 11 -9
33 -12 49 -3 24 1 20 20 -20 l23 -50 32 49 c32 52 40 102 22 149 -14 36 -120
147 -141 147 -14 0 -24 -17 -40 -66z"/>
<path d="M5263 8605 c0 -22 2 -30 4 -17 2 12 2 30 0 40 -3 9 -5 -1 -4 -23z"/>
<path d="M4070 8600 c0 -5 5 -10 11 -10 5 0 7 5 4 10 -3 6 -8 10 -11 10 -2 0
-4 -4 -4 -10z"/>
<path d="M5872 8598 c3 -7 -7 -25 -21 -41 -33 -37 -49 -81 -50 -138 -1 -56 16
-92 70 -148 45 -49 47 -48 89 23 15 24 18 36 9 31 -9 -5 -8 -1 4 12 17 20 22
68 10 111 -4 18 -8 20 -15 10 -5 -8 -6 -2 -2 16 5 20 4 27 -4 22 -7 -4 -10 -2
-7 6 3 7 -11 31 -30 53 -19 22 -35 43 -35 48 0 4 -5 7 -11 7 -6 0 -9 -5 -7
-12z"/>
<path d="M9586 8594 c-4 -9 -4 -19 -1 -22 2 -3 7 3 11 12 4 9 4 19 1 22 -2 3
-7 -3 -11 -12z"/>
<path d="M3541 8584 c0 -11 3 -14 6 -6 3 7 2 16 -1 19 -3 4 -6 -2 -5 -13z"/>
<path d="M5165 8590 c-3 -6 1 -7 9 -4 18 7 21 14 7 14 -6 0 -13 -4 -16 -10z"/>
<path d="M5110 8575 c-7 -9 -11 -17 -9 -20 3 -2 10 5 17 15 14 24 10 26 -8 5z"/>
<path d="M4213 8520 c3 -11 1 -18 -4 -15 -13 9 -23 -43 -24 -121 0 -60 4 -76
28 -112 15 -23 34 -42 43 -42 8 0 13 -4 9 -10 -8 -14 48 -40 65 -30 11 7 12
13 3 32 -7 13 -20 49 -29 81 -10 31 -20 53 -23 48 -3 -5 -7 14 -8 42 l-2 52
20 -25 c12 -14 17 -19 13 -11 -4 9 -3 12 4 7 6 -4 9 -13 5 -21 -3 -8 1 -15 8
-15 7 0 10 -2 7 -6 -3 -3 5 -35 18 -72 13 -37 24 -76 24 -86 0 -33 13 -9 20
39 4 29 3 46 -4 49 -8 3 -8 7 1 13 14 10 -18 109 -35 106 -6 -2 -9 3 -6 11 6
16 -49 59 -61 48 -5 -4 -5 -2 -2 4 7 12 -20 34 -57 47 -15 6 -17 3 -13 -13z
m4 -222 c-3 -8 -6 -5 -6 6 -1 11 2 17 5 13 3 -3 4 -12 1 -19z m66 -28 c-3 -12
-8 -19 -11 -16 -5 6 5 36 12 36 2 0 2 -9 -1 -20z m28 -68 c-7 -2 -18 1 -23 6
-8 8 -4 9 13 5 13 -4 18 -8 10 -11z"/>
<path d="M5541 8484 c-59 -66 -73 -98 -73 -171 0 -47 6 -76 26 -116 14 -30 26
-59 26 -64 0 -16 -62 -68 -156 -130 -86 -56 -105 -73 -82 -73 38 0 171 87 320
209 49 40 72 97 72 176 0 61 -4 79 -37 143 -20 39 -41 72 -46 72 -4 0 -27 -21
-50 -46z"/>
<path d="M5098 8490 c2 -16 6 -30 8 -30 2 0 4 14 4 30 0 17 -4 30 -8 30 -5 0
-7 -13 -4 -30z"/>
<path d="M3852 8432 c-118 -125 -132 -244 -43 -384 15 -24 31 -61 35 -82 4
-21 19 -64 33 -95 70 -156 77 -226 38 -372 -14 -52 -42 -160 -64 -241 l-38
-148 -43 83 c-23 45 -57 105 -75 133 -25 37 -38 74 -50 140 -29 151 -79 246
-164 311 -27 21 -51 43 -54 48 -2 6 -2 0 0 -12 1 -12 23 -51 48 -87 24 -36 55
-86 68 -113 25 -48 50 -124 43 -130 -2 -2 -25 15 -52 37 -27 22 -79 56 -116
75 -73 39 -71 35 -93 182 -4 22 -13 49 -21 60 -14 16 -15 7 -11 -85 3 -89 2
-102 -11 -97 -47 18 -119 27 -215 27 -97 1 -129 -4 -116 -16 3 -3 45 -12 94
-21 236 -44 375 -121 488 -268 77 -100 128 -206 182 -377 119 -372 148 -459
176 -514 16 -33 27 -61 25 -64 -3 -2 -33 5 -68 17 -35 11 -115 32 -178 46 -63
15 -140 36 -170 48 -100 38 -213 178 -291 359 -22 49 -75 160 -118 246 -63
125 -83 174 -95 242 -29 150 -49 230 -57 230 -5 0 -9 -8 -9 -17 1 -47 20 -269
25 -284 5 -15 -5 -13 -65 12 -39 17 -98 32 -134 36 -61 5 -183 -4 -173 -13 3
-3 58 -18 123 -35 145 -36 188 -56 253 -120 56 -55 99 -135 154 -289 49 -135
98 -227 153 -289 l48 -53 -44 22 c-84 42 -205 128 -261 187 -31 32 -111 130
-177 218 -117 157 -258 315 -281 315 -6 0 20 -42 57 -92 95 -130 240 -373 229
-384 -2 -3 -51 -21 -108 -41 -137 -48 -232 -52 -295 -11 -22 14 -48 38 -58 53
-11 17 -51 43 -109 70 -71 34 -86 44 -64 44 34 1 117 -32 176 -71 24 -16 45
-27 47 -25 3 2 -1 28 -7 57 -22 104 -131 169 -264 157 -66 -6 -175 -45 -175
-62 0 -17 151 -148 198 -172 29 -15 63 -23 95 -23 45 0 54 -4 99 -46 101 -94
209 -111 382 -60 143 42 140 43 264 -82 164 -165 248 -214 541 -314 258 -87
407 -173 550 -316 48 -48 109 -117 135 -154 63 -90 164 -291 210 -418 21 -58
49 -136 63 -173 14 -38 24 -70 22 -72 -2 -1 -41 25 -86 58 -45 34 -120 85
-168 112 l-87 50 -24 70 c-37 104 -43 134 -45 200 -1 33 -5 74 -9 90 -7 26 -8
24 -9 -20 -1 -27 -4 -74 -7 -102 l-7 -53 -31 28 c-17 15 -56 39 -86 53 -30 15
-80 39 -110 53 -30 15 -70 36 -88 47 -19 13 -57 23 -95 27 l-62 5 36 -44 c53
-65 110 -91 208 -91 l79 0 40 -42 c40 -41 92 -130 92 -159 0 -12 -12 -10 -66
10 -99 36 -195 59 -334 83 -128 21 -256 57 -319 90 -65 33 -70 41 -219 363
-41 87 -108 181 -124 171 -4 -3 -8 0 -8 7 0 7 -2 10 -5 7 -3 -3 8 -38 24 -79
16 -41 44 -128 61 -194 17 -66 33 -128 36 -138 4 -11 -24 4 -78 43 -46 33
-132 96 -191 139 -59 44 -154 103 -210 132 -94 50 -137 84 -211 167 -35 40
-41 37 -21 -11 26 -62 25 -62 -82 -59 l-98 3 -45 48 c-25 27 -57 65 -73 85
-15 19 -37 40 -48 46 -20 11 -20 11 1 -30 12 -23 37 -65 56 -95 18 -30 34 -56
34 -59 0 -7 -144 -52 -215 -66 -32 -7 -81 -10 -107 -7 -53 7 -59 4 -25 -15 42
-23 138 -27 291 -11 236 25 358 1 513 -99 84 -55 306 -268 280 -268 -23 0 -77
-53 -77 -74 0 -35 113 -54 165 -29 32 15 33 15 113 -40 44 -30 90 -58 101 -62
40 -12 20 -22 -96 -43 -254 -47 -468 -20 -698 89 -128 60 -206 118 -320 236
-60 63 -137 134 -170 157 -71 50 -219 130 -261 140 l-29 8 25 -22 c14 -13 60
-47 104 -78 43 -31 104 -79 135 -108 58 -53 150 -174 133 -174 -5 0 -38 9 -73
21 -93 30 -202 23 -289 -18 -72 -33 -125 -72 -100 -73 8 0 44 10 80 21 36 11
94 21 130 22 68 1 143 -18 138 -35 -2 -5 -42 -26 -88 -48 -104 -47 -176 -57
-245 -36 -66 21 -81 21 -65 1 7 -8 18 -15 25 -15 7 0 18 -7 25 -14 6 -8 37
-20 68 -27 72 -15 136 -1 252 54 73 35 95 40 155 41 l70 1 102 -75 c56 -41
141 -96 189 -122 l87 -46 -51 -26 c-87 -44 -196 -76 -259 -76 -78 1 -124 12
-261 67 -64 25 -135 48 -157 50 -39 4 -37 3 39 -40 l80 -45 -36 -15 c-20 -9
-41 -25 -47 -36 -8 -13 -17 -18 -28 -14 -11 4 -13 8 -5 11 7 2 12 11 12 19 0
15 -2 15 -17 1 -10 -9 -50 -32 -89 -51 -65 -33 -84 -36 -84 -17 0 7 83 50 150
78 l35 14 -40 21 c-48 24 -128 26 -171 4 -57 -29 -164 -144 -164 -176 0 -6 6
-11 14 -11 8 0 33 -9 57 -20 60 -27 146 -26 205 1 25 12 65 45 91 75 37 43 55
55 95 64 55 14 66 12 161 -22 l67 -25 -30 -42 c-45 -61 -32 -72 20 -17 43 44
47 46 103 46 96 0 224 30 413 97 75 27 85 29 156 20 l76 -10 -56 -46 c-98 -79
-144 -138 -193 -246 -32 -72 -34 -86 -17 -118 6 -12 11 -40 9 -62 -1 -27 1
-36 7 -26 6 8 15 10 22 6 9 -6 11 -4 5 5 -6 10 -4 12 9 7 10 -4 15 -3 11 3 -3
6 1 13 10 16 10 4 13 13 10 25 -4 11 -2 19 4 19 21 0 11 51 -14 76 l-25 25 27
35 c109 144 310 251 504 270 l74 7 -110 -83 c-60 -45 -153 -104 -205 -130 -81
-41 -185 -113 -140 -97 21 8 142 46 230 73 87 27 89 25 91 -61 l0 -60 22 73
c12 40 33 84 46 98 35 37 176 102 271 125 82 20 87 20 155 4 230 -55 441 -188
593 -372 94 -115 173 -248 250 -423 167 -380 189 -613 101 -1054 -16 -83 -27
-156 -24 -163 2 -8 1 -12 -3 -9 -5 3 -16 -27 -26 -67 -26 -104 -63 -220 -103
-317 -19 -46 -32 -93 -29 -105 2 -11 14 -47 24 -80 11 -33 28 -95 38 -138 9
-43 21 -80 25 -83 5 -3 23 16 41 42 62 88 60 87 98 77 32 -9 33 -10 12 -17
-12 -4 -29 -21 -38 -37 -14 -28 -12 -27 25 10 22 22 51 41 67 43 24 3 29 11
52 83 13 44 25 90 26 102 0 11 4 19 9 16 4 -2 7 1 7 7 0 6 4 9 9 6 5 -4 7 2 5
11 -3 11 4 23 17 31 19 12 21 12 16 -2 -4 -9 -3 -16 1 -16 13 0 52 40 52 53 0
8 -3 7 -9 -2 -8 -12 -10 -12 -14 0 -2 8 -3 6 -2 -3 2 -10 -1 -21 -6 -24 -5 -3
-9 3 -9 12 0 16 -1 16 -18 1 -21 -19 -42 -22 -42 -6 0 5 4 8 9 5 4 -3 6 5 4
18 -3 12 2 40 11 61 9 20 16 46 16 56 0 16 37 89 45 89 2 0 1 -8 -2 -19 -3
-10 0 -22 6 -25 6 -4 11 -16 11 -27 0 -10 5 -19 10 -19 7 0 8 13 4 35 -4 22
-2 35 4 35 6 0 13 -19 15 -42 3 -31 4 -27 3 14 -1 31 2 54 7 51 4 -2 7 5 7 16
0 37 32 88 70 112 21 13 36 27 33 32 -2 4 1 7 7 7 5 0 37 37 69 82 97 135 103
141 113 126 7 -10 12 -9 24 7 16 19 16 19 9 -5 -10 -35 -23 -47 -31 -27 -3 9
-10 14 -15 11 -5 -3 -6 -10 -3 -16 4 -6 2 -8 -4 -4 -15 9 -25 -10 -17 -34 8
-26 32 -26 40 0 4 13 15 20 31 20 13 0 24 5 24 11 0 5 -4 8 -8 5 -5 -3 -7 18
-5 47 l4 52 -20 -25 c-11 -14 -22 -22 -26 -18 -11 11 66 103 84 100 13 -2 13
-1 2 6 -10 8 -6 21 24 67 20 32 41 68 45 79 8 19 9 19 9 -6 1 -15 -4 -30 -9
-33 -11 -7 -4 -72 10 -90 4 -5 6 -18 4 -29 -1 -10 2 -27 9 -36 8 -14 8 -24 -1
-42 -11 -22 -11 -21 -6 7 4 25 3 27 -6 12 -6 -10 -9 -32 -5 -50 l6 -32 -15 33
c-8 17 -18 32 -21 32 -3 0 -2 -8 3 -17 5 -10 12 -31 16 -48 5 -23 4 -27 -5
-15 -8 12 -9 9 -4 -13 4 -19 2 -26 -5 -22 -7 4 -9 -3 -5 -22 5 -20 4 -24 -3
-14 -8 12 -15 8 -32 -20 -14 -22 -19 -26 -15 -11 5 16 2 22 -8 22 -9 0 -17 5
-19 12 -3 9 -6 9 -12 0 -4 -7 -3 -12 2 -12 5 0 7 -24 4 -52 -2 -29 -1 -49 4
-45 4 4 7 24 6 45 -1 29 1 33 8 17 12 -29 0 -124 -21 -167 -13 -25 -19 -59
-19 -105 0 -54 -5 -77 -25 -112 -14 -24 -24 -45 -23 -46 2 -1 18 -10 36 -19
34 -18 72 -9 72 17 0 8 -4 7 -10 -3 -20 -32 -18 -1 5 65 13 39 25 77 25 85 1
8 7 29 14 45 l14 30 -2 -35 c0 -21 4 -34 10 -33 7 1 9 -8 6 -25 -5 -22 -7 -24
-10 -7 -2 11 -9 25 -14 30 -8 7 -9 6 -5 -1 4 -6 -2 -28 -13 -48 -14 -29 -16
-44 -9 -63 13 -34 12 -40 -11 -63 -11 -11 -15 -20 -10 -20 24 0 90 -75 106
-119 31 -85 89 -205 112 -230 12 -13 22 -29 21 -35 0 -6 -3 -6 -6 2 -2 6 -9
10 -14 6 -5 -3 -9 1 -10 8 0 7 -7 -9 -14 -37 -14 -48 -11 -99 5 -120 5 -5 13
-26 18 -45 6 -20 11 -27 11 -15 0 11 -6 33 -14 49 -9 16 -13 31 -10 34 7 8 37
-69 42 -108 2 -19 7 -37 10 -40 3 -3 3 7 1 22 -3 16 -4 28 -4 28 1 0 24 -30
51 -67 27 -38 57 -74 67 -81 19 -14 24 -32 9 -32 -5 0 -17 7 -25 16 -9 8 -16
11 -16 6 0 -6 -36 -10 -84 -10 l-84 0 -13 46 c-7 26 -21 56 -31 67 -10 11 -21
30 -24 42 -8 29 -19 30 -21 1 -6 -94 -16 -168 -22 -168 -4 0 -6 69 -3 154 5
174 -3 289 -21 283 -8 -2 -14 -59 -18 -180 -3 -97 -8 -179 -10 -182 -3 -2 -41
-10 -85 -16 -71 -10 -281 -6 -325 7 -14 4 -17 30 -23 167 -8 172 -13 210 -27
201 -5 -3 -9 -102 -9 -220 0 -184 -2 -214 -15 -214 -13 0 -15 30 -14 213 1
116 4 223 8 235 l6 24 264 0 c167 -1 268 -5 274 -11 6 -6 13 -65 16 -131 l6
-120 49 43 c31 28 45 47 37 51 -6 4 -11 24 -11 44 0 54 -57 281 -83 327 -17
31 -37 47 -92 75 -88 44 -125 69 -125 85 0 7 13 29 30 50 24 30 30 48 30 84 0
66 -16 113 -47 143 -70 66 -203 15 -203 -78 0 -20 -5 -44 -10 -54 -14 -27 -4
-60 31 -101 16 -19 29 -37 29 -41 0 -16 -66 -59 -116 -75 -96 -30 -97 -32
-169 -294 -20 -75 -24 -102 -16 -122 12 -30 1 -35 -24 -11 -10 11 -14 26 -11
43 3 14 8 44 10 66 l6 40 -12 -32 c-11 -33 -11 -33 -78 -33 -50 0 -69 -4 -73
-14 -4 -11 5 -16 34 -21 30 -5 39 -11 35 -22 -3 -8 -6 -17 -6 -19 0 -2 -13 -4
-29 -4 -16 0 -52 -8 -81 -17 -76 -25 -78 -23 -144 160 -33 88 -48 30 -22 -85
8 -35 17 -79 20 -99 l6 -35 77 -13 c42 -7 87 -18 99 -23 30 -14 60 -75 77
-160 l15 -68 -59 0 c-64 0 -68 5 -49 56 6 15 9 28 7 30 -1 2 -32 -8 -68 -21
-83 -30 -264 -41 -438 -26 -68 5 -125 12 -128 14 -6 7 -12 45 -30 204 l-17
152 -61 -2 c-112 -4 -219 3 -209 12 5 5 50 12 99 14 50 2 103 8 119 12 20 5
31 4 37 -6 6 -10 9 -6 9 14 0 24 4 27 33 27 29 1 31 2 14 14 -18 14 -18 18 -2
102 19 101 25 115 71 161 27 27 32 37 25 56 -13 33 -40 52 -98 72 -56 18 -62
25 -37 45 27 23 37 52 38 115 1 33 5 65 8 71 14 22 -12 82 -45 102 -90 55
-197 21 -213 -67 -4 -20 -13 -43 -20 -52 -19 -22 -2 -74 37 -115 17 -18 29
-39 26 -46 -3 -7 -42 -28 -86 -47 -45 -18 -86 -42 -91 -52 -8 -14 -40 -215
-40 -246 0 -3 -4 -2 -9 2 -5 3 -19 34 -30 68 -15 44 -31 70 -51 86 -40 29 -39
61 3 81 33 16 40 34 51 125 2 22 8 55 12 73 5 25 2 38 -12 54 -44 49 -153 64
-209 30 -41 -26 -74 -97 -82 -177 -6 -64 -7 -67 -49 -96 -34 -23 -44 -37 -49
-67 -3 -20 -10 -51 -15 -68 -24 -73 -28 -126 -14 -160 19 -44 19 -44 -18 -44
-17 0 -40 -8 -51 -17 -12 -12 -36 -18 -66 -19 -25 0 -58 -4 -72 -8 -22 -6 -28
-3 -37 21 -10 23 -46 168 -67 268 -2 12 -30 49 -61 83 -55 61 -98 92 -128 92
-21 0 -117 -104 -144 -157 -29 -57 -52 -159 -52 -239 0 -79 -11 -88 -27 -22
-18 68 -37 88 -84 88 -21 0 -40 -4 -43 -8 -3 -5 6 -56 19 -115 27 -117 79
-377 90 -445 5 -32 13 -45 30 -52 l23 -9 -20 -81 c-17 -65 -25 -81 -42 -85
-11 -3 -72 -14 -134 -25 -62 -11 -117 -22 -123 -25 -13 -9 -11 27 7 106 9 39
14 72 12 74 -2 2 -15 -24 -28 -58 l-25 -62 -7 85 c-5 47 -14 105 -21 129 -13
43 -14 40 -11 -65 3 -89 1 -103 -7 -74 -18 59 -43 113 -68 150 -13 19 -21 26
-17 15 35 -121 58 -285 39 -285 -5 0 -15 28 -22 61 -7 34 -23 84 -35 113 -23
51 -94 166 -83 135 31 -93 46 -157 51 -224 l7 -80 -25 50 c-32 63 -99 141
-139 162 l-31 16 31 -32 c48 -48 145 -242 130 -258 -4 -3 -32 4 -63 16 -31 11
-77 21 -102 20 l-47 0 45 -14 c25 -7 58 -17 74 -22 l29 -9 -39 -11 c-21 -6
-82 -21 -134 -34 -379 -90 -773 -203 -805 -231 -5 -5 4 -4 20 1 57 19 383 73
830 136 101 14 331 41 590 69 160 18 661 59 905 75 91 7 197 14 235 16 104 8
58 -10 -64 -24 -57 -7 -185 -26 -285 -41 -286 -46 -372 -60 -506 -80 -155 -23
-93 -26 110 -5 80 8 170 17 200 20 158 16 794 64 915 70 174 8 295 21 405 46
214 48 277 59 349 59 69 -1 74 -2 51 -14 -106 -57 -793 -286 -1055 -352 -118
-29 -125 -32 -79 -33 136 -2 441 59 724 145 263 81 384 115 398 112 19 -4
-101 -85 -194 -132 -60 -30 -193 -77 -332 -117 -23 -7 -40 -14 -38 -16 2 -2
93 17 202 42 314 73 490 129 662 210 61 30 112 52 112 49 0 -13 -40 -81 -56
-95 -18 -15 -43 -29 -258 -153 -95 -55 -191 -124 -183 -133 3 -2 81 35 175 82
94 47 189 92 211 100 l41 14 0 -35 c0 -30 -8 -60 -45 -159 -6 -15 -3 -14 11 5
10 14 26 34 36 44 26 29 74 132 93 200 17 62 54 123 99 165 24 23 27 23 44 8
10 -9 29 -38 43 -64 36 -71 30 -173 -17 -288 -7 -18 -6 -19 10 -6 39 32 100
181 111 275 4 31 11 53 16 51 4 -3 32 -43 62 -88 63 -96 141 -184 188 -211
l34 -20 -32 37 c-18 21 -35 47 -37 60 -9 43 -16 107 -12 107 2 0 44 -25 92
-56 49 -30 116 -71 149 -89 75 -42 295 -138 301 -132 7 7 -63 59 -136 101
-195 113 -296 218 -346 358 l-13 38 31 0 c17 0 39 -6 47 -14 34 -31 223 -117
349 -160 176 -60 479 -141 622 -165 117 -21 391 -52 439 -50 26 1 -68 26 -349
94 -259 63 -738 241 -765 285 -4 7 36 10 118 10 101 0 141 -4 208 -24 156 -44
248 -61 429 -76 69 -6 197 -17 285 -25 833 -78 1089 -99 1070 -90 -13 5 -840
142 -917 151 -32 4 -58 10 -58 15 0 9 9 8 500 -32 201 -16 422 -34 491 -39
498 -39 1452 -172 1694 -237 11 -3 18 -3 15 0 -11 12 -296 96 -495 147 -168
43 -458 109 -645 147 l-45 9 34 18 c26 14 50 17 104 14 l71 -4 -40 18 c-48 23
-143 20 -193 -5 -48 -24 -49 -22 -10 19 37 40 78 61 154 80 48 12 48 12 14 13
-60 2 -135 -27 -184 -69 -26 -22 -48 -40 -51 -40 -8 0 101 145 131 173 29 28
30 28 5 21 -35 -9 -78 -41 -127 -93 -35 -38 -41 -41 -36 -21 4 14 19 47 35 73
15 26 28 52 28 57 0 5 18 28 39 52 22 23 38 44 36 46 -2 2 -17 -4 -33 -12 -35
-18 -88 -80 -126 -146 -14 -25 -26 -42 -26 -38 0 3 9 50 20 105 12 62 32 124
55 168 19 39 28 61 20 50 -51 -65 -62 -83 -87 -141 -15 -35 -32 -92 -39 -126
-15 -81 -28 -105 -30 -58 0 19 -7 58 -14 85 l-13 50 -1 -80 c-1 -44 -6 -87
-11 -95 -8 -12 -10 -10 -11 10 0 14 -8 43 -18 65 l-18 40 5 -89 c4 -73 2 -88
-9 -84 -11 4 -241 41 -396 64 -28 4 -32 9 -38 47 -4 23 -9 50 -12 60 -3 13 2
20 15 24 21 5 25 19 120 406 45 184 47 199 31 208 -25 13 -85 11 -97 -3 -8
-11 -35 -94 -62 -193 -6 -22 -8 -7 -9 56 -1 115 -26 253 -56 314 -14 28 -54
81 -89 119 l-65 69 16 36 c43 98 45 112 28 158 -19 49 -81 93 -131 93 -29 0
-162 -35 -172 -45 -3 -3 2 -13 11 -23 15 -16 16 -27 7 -72 -6 -30 -16 -63 -24
-75 -12 -19 -12 -23 4 -33 10 -6 22 -28 27 -49 7 -32 13 -39 38 -41 62 -7 69
-35 25 -100 -16 -24 -36 -67 -46 -95 -23 -70 -67 -158 -91 -179 -44 -40 -195
-51 -250 -17 -33 21 -74 22 -116 4 -15 -6 -17 -1 -17 46 0 64 -43 164 -84 196
-31 25 -31 28 -7 60 23 28 19 43 -20 93 -15 19 -30 46 -34 60 -13 43 -52 114
-73 131 -26 22 -107 39 -141 29 -44 -13 -90 -44 -95 -65 -9 -33 5 -168 21
-206 8 -20 26 -42 40 -48 26 -12 23 -31 -4 -31 -28 0 -103 -41 -119 -65 -20
-31 -84 -183 -93 -220 -6 -28 -11 -30 -54 -33 -33 -2 -47 -7 -47 -18 0 -7 6
-14 14 -14 8 0 18 -4 21 -10 4 -6 -27 -10 -84 -10 -54 0 -91 4 -91 10 0 6 11
10 25 10 l25 0 -30 53 c-17 28 -42 75 -54 102 -13 28 -42 88 -63 135 -111 236
-193 616 -218 1005 -12 187 28 483 86 635 11 30 24 66 28 80 14 43 82 172 124
235 51 76 192 217 277 276 118 84 398 219 453 219 100 0 408 -129 500 -210 26
-23 47 -38 47 -34 0 16 -45 72 -69 88 -26 15 -25 15 35 16 56 0 159 14 194 26
29 10 -11 21 -118 33 -121 14 -168 29 -231 74 -25 18 -68 46 -96 62 l-50 29
49 12 c93 24 229 36 318 29 93 -7 160 -22 351 -79 206 -62 322 -71 445 -34
l74 21 45 -46 c41 -42 63 -57 63 -42 0 3 -19 26 -42 51 -31 33 -38 48 -30 56
6 6 61 15 121 19 138 9 162 20 96 43 -27 9 -64 16 -84 16 l-34 0 23 25 c39 41
172 125 200 125 24 1 24 1 6 15 -45 34 -114 8 -242 -91 -122 -94 -177 -117
-290 -122 -86 -4 -98 -2 -215 38 -125 42 -161 60 -123 60 35 0 213 96 329 177
106 75 112 77 176 81 55 3 76 0 130 -23 127 -54 200 -75 264 -75 58 0 142 21
155 38 3 4 18 16 33 26 39 24 29 29 -24 11 -25 -9 -78 -16 -127 -16 -78 0 -90
3 -173 42 -49 23 -89 45 -89 49 0 13 115 32 182 31 37 -1 97 -11 133 -22 37
-11 72 -18 78 -16 19 6 -91 65 -162 87 -90 28 -159 26 -275 -11 -54 -17 -100
-28 -103 -26 -5 5 79 102 126 147 56 52 128 109 186 145 62 39 125 93 125 107
0 10 -252 -116 -310 -155 -24 -17 -87 -71 -140 -120 -219 -205 -429 -322 -617
-342 -66 -7 -72 -3 -48 29 8 11 15 27 15 35 -1 9 -12 -3 -26 -26 l-26 -43 -82
1 c-44 0 -138 8 -208 17 l-126 17 45 50 c25 28 68 77 96 110 84 99 217 224
295 277 148 100 325 169 477 184 64 7 155 -5 249 -32 52 -15 142 -18 195 -8
49 10 37 20 -26 23 -32 1 -89 14 -128 28 -110 40 -236 73 -280 73 l-39 0 40
43 c22 23 66 72 97 109 40 46 69 70 95 79 61 20 126 56 140 78 11 19 10 21
-18 21 -16 0 -50 -7 -76 -16 -25 -8 -48 -14 -50 -12 -2 3 10 37 27 77 17 40
28 75 25 78 -11 11 -36 -7 -52 -39 -45 -90 -155 -240 -222 -306 -107 -104
-143 -126 -262 -159 -67 -18 -153 -52 -238 -95 l-133 -67 6 32 c13 67 38 129
69 175 50 73 50 73 5 49 -35 -18 -49 -36 -85 -107 -24 -47 -50 -114 -58 -149
-14 -61 -20 -70 -103 -153 -252 -255 -451 -379 -700 -438 -294 -70 -532 -192
-702 -360 -59 -59 -59 -56 -15 55 49 122 153 269 259 368 74 69 198 143 416
249 202 99 220 110 291 179 114 112 242 319 345 559 35 80 71 128 140 185 97
80 194 136 303 175 139 50 233 107 335 203 34 33 36 33 -69 -16 -70 -34 -176
-69 -184 -62 -11 10 135 248 179 293 42 43 15 43 -38 0 -54 -44 -89 -86 -156
-188 -31 -47 -62 -94 -70 -105 -9 -13 -41 -27 -84 -39 -39 -10 -101 -33 -139
-51 -38 -19 -70 -32 -72 -30 -7 7 76 173 142 284 107 181 182 273 268 327 20
13 39 27 42 33 7 11 -62 -4 -111 -24 -20 -9 -39 -13 -42 -10 -3 4 -4 23 -3 43
2 33 -3 27 -42 -53 -25 -49 -69 -119 -98 -155 -89 -109 -142 -189 -239 -365
-40 -71 -99 -177 -132 -235 -33 -58 -67 -118 -76 -135 -9 -16 -18 -32 -21 -35
-3 -3 -37 -54 -75 -115 -140 -223 -250 -342 -375 -405 -66 -34 -383 -160 -389
-155 -2 3 12 41 33 84 20 44 36 85 36 90 0 5 6 16 13 23 6 7 20 30 31 50 22
43 95 120 107 112 5 -3 9 0 9 7 0 7 3 10 6 6 4 -3 -8 -23 -25 -44 -17 -21 -31
-43 -31 -50 0 -7 -4 -13 -8 -13 -6 0 -63 -103 -90 -162 -7 -16 45 -7 97 17 70
33 103 66 98 97 -2 12 -2 17 0 11 9 -27 23 -10 43 53 12 40 20 90 19 126 l-2
60 -42 -5 c-105 -15 -219 -82 -277 -163 -34 -47 -78 -203 -78 -274 0 -55 -12
-72 -65 -96 -104 -47 -255 -177 -336 -289 -39 -54 -46 -46 -28 28 53 222 241
515 513 797 82 85 155 175 214 261 26 39 49 56 129 97 54 28 139 66 188 86
144 56 216 89 275 123 61 36 147 109 115 98 -128 -43 -181 -58 -310 -85 -82
-17 -183 -40 -223 -51 -41 -11 -76 -18 -79 -16 -2 3 2 25 10 49 8 23 22 79 32
123 28 134 53 209 85 257 41 62 144 166 204 206 62 42 240 131 421 211 145 63
225 108 175 98 -14 -3 -45 -12 -70 -20 -25 -9 -90 -27 -145 -42 -55 -15 -153
-46 -217 -70 -65 -23 -120 -40 -122 -37 -3 2 21 54 52 116 67 130 69 135 51
119 -23 -23 -29 -14 -29 46 0 100 -13 104 -26 9 -11 -71 -23 -106 -72 -205
-58 -115 -61 -119 -131 -167 -40 -27 -88 -64 -109 -82 l-37 -33 -10 97 c-6 54
-7 109 -2 123 7 24 47 76 126 164 46 52 84 105 79 111 -3 3 -18 -6 -34 -18
-16 -13 -49 -37 -74 -53 -25 -17 -68 -53 -97 -82 l-52 -52 -27 82 c-14 45 -44
120 -66 167 -53 110 -56 125 -48 187 7 56 -4 64 -15 10 -14 -72 -14 -72 -73 7
-31 41 -58 71 -60 66 -2 -5 17 -44 41 -87 72 -127 91 -173 78 -186 -6 -6 -11
-7 -11 -3 0 5 -7 3 -15 -4 -8 -7 -15 -9 -15 -5 0 3 -20 -17 -45 -46 -25 -29
-45 -56 -45 -61 0 -22 -19 -4 -25 25 -11 48 -57 144 -62 130 -3 -7 2 -34 11
-60 32 -99 38 -173 22 -251 -17 -81 -69 -188 -131 -268 -37 -47 -209 -203
-226 -204 -4 0 -12 28 -18 63 -7 34 -28 109 -48 167 -39 116 -41 144 -17 231
27 95 9 86 -41 -21 l-16 -34 -13 24 c-7 14 -32 59 -56 100 -24 41 -61 108 -82
148 l-37 72 44 45 c30 29 45 53 45 70 0 25 0 25 -27 8 -16 -9 -39 -25 -52 -35
-13 -10 -27 -18 -31 -18 -15 0 -50 157 -50 224 0 60 -2 67 -15 56 -8 -7 -15
-27 -15 -44 l0 -31 -40 45 c-45 51 -48 50 -21 -11 10 -24 31 -97 46 -161 l27
-116 -45 -54 c-135 -157 -254 -405 -273 -573 -4 -30 -10 -55 -14 -55 -20 0
-166 218 -211 316 -73 158 -77 383 -8 454 46 47 154 191 176 234 26 52 57 145
50 152 -2 2 -30 -33 -62 -79 -32 -45 -87 -112 -122 -149 l-63 -66 0 48 c0 60
-15 74 -24 22 -4 -20 -23 -95 -43 -167 -33 -121 -35 -136 -30 -233 l5 -104
-35 48 c-63 87 -129 248 -174 419 -29 112 -35 111 -31 -5 4 -106 72 -330 151
-495 50 -106 161 -295 255 -432 78 -115 109 -182 146 -308 42 -145 60 -192
147 -384 41 -90 81 -193 89 -229 16 -68 21 -242 9 -327 -14 -106 -60 -285 -73
-285 -4 0 -17 17 -29 38 -35 62 -145 197 -248 305 l-97 102 4 145 c4 153 12
183 58 225 12 11 27 29 32 40 11 19 10 19 -13 2 -59 -42 -60 -42 -53 5 3 24
17 95 31 158 77 360 75 383 -9 128 -40 -120 -76 -218 -80 -218 -4 0 -8 4 -8 9
0 11 -68 86 -74 80 -2 -2 14 -41 36 -87 l39 -83 -21 -73 c-11 -40 -28 -112
-38 -160 l-18 -88 -110 108 c-218 215 -328 437 -341 684 -6 110 -1 145 52 400
20 95 26 148 24 220 -4 106 0 129 42 248 44 126 36 139 -22 37 -28 -50 -54
-94 -58 -98 -8 -8 -101 124 -101 143 0 5 -5 10 -11 10 -6 0 -9 7 -5 15 3 8 2
15 -2 15 -4 0 -18 31 -31 68 -41 118 -17 235 70 345 17 20 27 42 24 47 -10 16
-17 11 -63 -38z m2221 -639 c62 -203 75 -311 57 -464 -20 -179 -56 -302 -130
-449 -52 -103 -83 -150 -146 -214 l-48 -49 -27 109 c-16 60 -37 143 -49 184
-11 41 -23 101 -27 133 -3 31 -10 57 -14 57 -30 0 -29 -167 0 -324 12 -61 21
-145 21 -187 l0 -77 -197 -169 -197 -170 -42 126 -43 125 31 95 c61 191 104
265 310 526 141 178 124 156 169 230 83 136 116 226 138 373 9 58 15 69 83
147 40 46 76 84 79 85 3 0 18 -39 32 -87z m-888 -148 c130 -271 160 -375 153
-538 l-3 -93 -46 -55 c-77 -90 -159 -208 -181 -256 l-20 -45 -79 141 c-64 113
-78 145 -70 159 6 11 19 42 30 70 27 69 1 61 -32 -10 l-24 -50 -23 64 c-64
171 -32 458 71 646 18 31 39 71 48 87 9 17 29 47 45 68 l29 39 17 -44 c10 -23
48 -106 85 -183z m745 -1155 c0 -5 -2 -10 -4 -10 -3 0 -8 5 -11 10 -3 6 -1 10
4 10 6 0 11 -4 11 -10z m-933 -212 c-2 -18 -4 -6 -4 27 0 33 2 48 4 33 2 -15
2 -42 0 -60z m1583 -148 c-8 -5 -19 -10 -25 -10 -5 0 -3 5 5 10 8 5 20 10 25
10 6 0 3 -5 -5 -10z m-100 -50 c-8 -5 -19 -10 -25 -10 -5 0 -3 5 5 10 8 5 20
10 25 10 6 0 3 -5 -5 -10z m-227 -147 c-7 -2 -21 -2 -30 0 -10 3 -4 5 12 5 17
0 24 -2 18 -5z m-1642 -40 c13 -16 12 -17 -3 -4 -10 7 -18 15 -18 17 0 8 8 3
21 -13z m-74 -35 c-3 -8 -6 -5 -6 6 -1 11 2 17 5 13 3 -3 4 -12 1 -19z m114
-30 c-11 -11 -13 -10 -7 0 4 7 2 21 -5 30 -12 15 -11 15 6 0 16 -15 17 -20 6
-30z m1496 6 c-3 -3 -12 -4 -19 -1 -8 3 -5 6 6 6 11 1 17 -2 13 -5z m53 -14
c18 -12 2 -12 -25 0 -13 6 -15 9 -5 9 8 0 22 -4 30 -9z m-1582 -81 c-3 -8 -7
-3 -11 10 -4 17 -3 21 5 13 5 -5 8 -16 6 -23z m1329 -5 c-3 -3 -12 -4 -19 -1
-8 3 -5 6 6 6 11 1 17 -2 13 -5z m-1390 -66 c-3 -8 -6 -5 -6 6 -1 11 2 17 5
13 3 -3 4 -12 1 -19z m253 -40 c0 -5 -9 -3 -20 4 -11 7 -20 18 -20 25 0 9 6 7
20 -4 11 -10 20 -21 20 -25z m-143 10 c-3 -8 -6 -5 -6 6 -1 11 2 17 5 13 3 -3
4 -12 1 -19z m24 -45 c-8 -15 -10 -15 -11 -2 0 17 10 32 18 25 2 -3 -1 -13 -7
-23z m134 -23 c-3 -5 -10 -10 -16 -10 -5 0 -9 5 -9 10 0 6 7 10 16 10 8 0 12
-4 9 -10z m-118 -42 c-3 -7 -5 -2 -5 12 0 14 2 19 5 13 2 -7 2 -19 0 -25z
m-190 -20 c-3 -7 -5 -2 -5 12 0 14 2 19 5 13 2 -7 2 -19 0 -25z m323 18 c0 -8
-7 -16 -15 -20 -17 -6 -18 -4 -9 18 8 20 24 21 24 2z m60 -51 c0 -8 -3 -16 -7
-18 -5 -3 -8 5 -8 18 0 13 3 21 8 18 4 -2 7 -10 7 -18z m-253 -77 c-3 -8 -6
-5 -6 6 -1 11 2 17 5 13 3 -3 4 -12 1 -19z m1853 -32 c0 -2 -7 -7 -16 -10 -8
-3 -12 -2 -9 4 6 10 25 14 25 6z m-40 -30 c0 -2 -8 -10 -17 -17 -16 -13 -17
-12 -4 4 13 16 21 21 21 13z m-1682 -43 c6 -2 12 2 12 9 0 6 2 9 5 6 3 -3 2
-13 -1 -22 -5 -14 -9 -15 -15 -4 -7 10 -9 8 -10 -7 l0 -20 -9 20 c-11 25 -13
59 -2 35 4 -8 13 -16 20 -17z m217 -56 c1 -34 0 -53 -3 -43 -3 15 -6 16 -13 5
-6 -9 -7 2 -4 29 3 25 2 41 -4 38 -12 -8 -9 27 4 36 15 11 19 1 20 -65z m1302
17 c-3 -3 -12 -4 -19 -1 -8 3 -5 6 6 6 11 1 17 -2 13 -5z m74 -31 c-12 -20
-14 -14 -5 12 4 9 9 14 11 11 3 -2 0 -13 -6 -23z m-1331 -62 c0 -3 -7 4 -15
15 -8 10 -14 30 -14 44 0 20 3 17 14 -15 8 -22 15 -42 15 -44z m-343 27 c-3
-8 -6 -5 -6 6 -1 11 2 17 5 13 3 -3 4 -12 1 -19z m-50 -10 c-3 -8 -6 -5 -6 6
-1 11 2 17 5 13 3 -3 4 -12 1 -19z m-787 8 c0 -2 -7 -7 -16 -10 -8 -3 -12 -2
-9 4 6 10 25 14 25 6z m1160 -47 c0 -5 -4 -9 -10 -9 -5 0 -10 7 -10 16 0 8 5
12 10 9 6 -3 10 -10 10 -16z m-993 5 c-3 -3 -12 -4 -19 -1 -8 3 -5 6 6 6 11 1
17 -2 13 -5z m1065 -119 c3 -16 3 -24 1 -17 -3 6 -11 12 -20 12 -11 0 -13 3
-5 13 8 9 5 25 -9 56 -10 24 -19 48 -18 55 1 18 46 -86 51 -119z m-412 42 c5
-16 5 -25 0 -22 -5 3 -10 -3 -12 -12 -2 -10 -4 9 -5 42 0 33 2 51 4 40 2 -11
8 -33 13 -48z m107 -9 c-3 -7 -5 -2 -5 12 0 14 2 19 5 13 2 -7 2 -19 0 -25z
m-610 16 c-3 -3 -12 -4 -19 -1 -8 3 -5 6 6 6 11 1 17 -2 13 -5z m579 -198 c-2
-6 -5 3 -6 19 -1 22 -3 25 -8 12 -4 -9 -8 20 -8 65 l-1 83 14 -84 c7 -47 11
-90 9 -95z m291 122 c-3 -8 -6 -5 -6 6 -1 11 2 17 5 13 3 -3 4 -12 1 -19z m70
-40 c-3 -8 -6 -5 -6 6 -1 11 2 17 5 13 3 -3 4 -12 1 -19z m-2541 -44 c-19 -18
-21 -11 -4 19 7 14 13 17 15 10 3 -7 -3 -20 -11 -29z m2601 -116 c3 -14 0 -34
-6 -45 -9 -15 -10 -14 -7 12 2 17 1 24 -1 18 -2 -7 -9 -13 -14 -13 -12 0 -12
27 1 35 16 10 11 33 -12 56 -13 12 -17 18 -9 14 10 -6 12 -2 7 16 -3 13 3 4
15 -21 11 -25 23 -57 26 -72z m-370 70 c-3 -8 -6 -5 -6 6 -1 11 2 17 5 13 3
-3 4 -12 1 -19z m326 -37 c2 -10 1 -24 -3 -30 -4 -7 -7 1 -8 18 -1 35 3 40 11
12z m-294 -68 l-1 -48 -9 35 c-4 19 -6 41 -4 48 9 25 15 10 14 -35z m18 15
c-3 -7 -5 -2 -5 12 0 14 2 19 5 13 2 -7 2 -19 0 -25z m-209 -19 c-3 -8 -7 -3
-11 10 -4 17 -3 21 5 13 5 -5 8 -16 6 -23z m496 -29 c-6 -5 -24 21 -24 34 0 6
6 1 14 -10 8 -10 12 -21 10 -24z m66 -15 c0 -5 -5 -3 -10 5 -5 8 -10 20 -10
25 0 6 5 3 10 -5 5 -8 10 -19 10 -25z m-418 -3 c-3 -10 -1 -13 6 -8 7 4 12 3
12 -3 0 -5 3 -17 7 -27 10 -27 -15 -7 -31 25 -12 23 -12 28 -1 28 7 0 11 -7 7
-15z m58 -12 c0 -5 -2 -10 -4 -10 -3 0 -8 5 -11 10 -3 6 -1 10 4 10 6 0 11 -4
11 -10z m383 -48 c5 -7 7 -15 3 -19 -3 -3 -6 -1 -6 6 0 7 -4 10 -8 7 -4 -2 -8
10 -9 27 -1 19 1 24 4 12 3 -11 10 -26 16 -33z m-363 28 c0 -5 -5 -10 -11 -10
-5 0 -7 5 -4 10 3 6 8 10 11 10 2 0 4 -4 4 -10z m-15 -30 c3 -5 2 -10 -4 -10
-5 0 -13 5 -16 10 -3 6 -2 10 4 10 5 0 13 -4 16 -10z m368 -50 c-3 -11 -10
-23 -16 -27 -5 -3 -8 -2 -5 3 3 5 8 17 11 27 9 24 16 22 10 -3z m22 -10 c-4
-11 -2 -20 4 -20 6 0 11 -5 11 -12 0 -8 -5 -7 -15 3 -9 9 -13 23 -9 32 9 24
17 21 9 -3z m276 -16 c-5 -16 -10 -21 -10 -12 -1 18 10 51 15 45 2 -1 -1 -16
-5 -33z m-562 -57 c1 -5 -3 -5 -9 -2 -5 3 -10 16 -9 28 0 21 1 21 9 2 5 -11 9
-24 9 -28z m-52 -19 c-3 -7 -5 -2 -5 12 0 14 2 19 5 13 2 -7 2 -19 0 -25z
m353 12 c0 -5 -4 -10 -10 -10 -5 0 -10 5 -10 10 0 6 5 10 10 10 6 0 10 -4 10
-10z m40 -15 c0 -9 -6 -12 -15 -9 -8 4 -12 10 -9 15 8 14 24 10 24 -6z m174
-167 c-8 -25 -9 -15 -10 53 0 83 0 83 9 31 6 -32 6 -65 1 -84z m-174 68 c0
-39 -6 -31 -14 19 -5 29 -4 36 3 25 6 -8 11 -28 11 -44z m187 32 c-3 -8 -6 -5
-6 6 -1 11 2 17 5 13 3 -3 4 -12 1 -19z m-467 8 c0 -3 -4 -8 -10 -11 -5 -3
-10 -1 -10 4 0 6 5 11 10 11 6 0 10 -2 10 -4z m309 -71 c1 -16 -1 -17 -9 -5
-5 8 -9 29 -9 45 1 29 1 29 9 5 4 -14 8 -34 9 -45z m-296 34 c-4 -15 -8 -17
-14 -8 -6 11 4 28 18 29 0 0 -1 -9 -4 -21z m535 -4 c-3 -3 -9 2 -12 12 -6 14
-5 15 5 6 7 -7 10 -15 7 -18z m-388 -52 c0 -24 -3 -33 -9 -25 -7 12 -4 62 5
62 2 0 4 -17 4 -37z m138 -93 c0 -41 -3 -85 -6 -98 -4 -13 -7 29 -7 92 0 63 3
108 7 98 4 -9 6 -51 6 -92z m239 88 c-3 -8 -6 -5 -6 6 -1 11 2 17 5 13 3 -3 4
-12 1 -19z m-398 -38 c0 -23 -1 -23 -9 -5 -5 11 -9 29 -9 40 -1 17 1 17 9 5 5
-8 9 -26 9 -40z m128 28 c-3 -8 -6 -5 -6 6 -1 11 2 17 5 13 3 -3 4 -12 1 -19z
m57 -57 c3 -35 2 -60 -2 -56 -4 3 -8 34 -9 67 -4 79 5 71 11 -11z m-744 50 c0
-6 -4 -13 -10 -16 -5 -3 -10 1 -10 9 0 9 5 16 10 16 6 0 10 -4 10 -9z m490
-26 c0 -5 -5 -3 -10 5 -5 8 -10 20 -10 25 0 6 5 3 10 -5 5 -8 10 -19 10 -25z
m127 13 c-3 -8 -6 -5 -6 6 -1 11 2 17 5 13 3 -3 4 -12 1 -19z m-489 -23 c-3
-3 -9 2 -12 12 -6 14 -5 15 5 6 7 -7 10 -15 7 -18z m569 -22 c-3 -10 -5 -4 -5
12 0 17 2 24 5 18 2 -7 2 -21 0 -30z m-530 5 c-3 -8 -6 -5 -6 6 -1 11 2 17 5
13 3 -3 4 -12 1 -19z m510 -10 c-3 -8 -6 -5 -6 6 -1 11 2 17 5 13 3 -3 4 -12
1 -19z m-670 -45 c-3 -10 -5 -4 -5 12 0 17 2 24 5 18 2 -7 2 -21 0 -30z m690
-15 c-3 -8 -6 -5 -6 6 -1 11 2 17 5 13 3 -3 4 -12 1 -19z m240 -15 c-3 -10 -5
-4 -5 12 0 17 2 24 5 18 2 -7 2 -21 0 -30z m-180 -60 c-2 -16 -4 -3 -4 27 0
30 2 43 4 28 2 -16 2 -40 0 -55z m-644 42 c-3 -9 -8 -14 -10 -11 -3 3 -2 9 2
15 9 16 15 13 8 -4z m-106 -17 c-3 -8 -6 -5 -6 6 -1 11 2 17 5 13 3 -3 4 -12
1 -19z m653 -14 c0 -8 -5 -12 -10 -9 -6 4 -8 11 -5 16 9 14 15 11 15 -7z
m-389 -27 c-10 -9 -11 -8 -5 6 3 10 9 15 12 12 3 -3 0 -11 -7 -18z m422 -18
c5 -3 2 -9 -7 -12 -12 -5 -16 0 -16 15 0 12 3 17 8 12 4 -5 11 -12 15 -15z
m-662 -56 c-9 -15 -10 -12 -11 18 0 20 3 39 8 43 11 12 14 -42 3 -61z m596 35
c-3 -8 -6 -5 -6 6 -1 11 2 17 5 13 3 -3 4 -12 1 -19z m51 -161 c8 -9 10 -21 6
-28 -15 -25 -34 54 -32 135 l1 81 6 -86 c4 -49 12 -93 19 -102z m-231 116 c-3
-10 -5 -4 -5 12 0 17 2 24 5 18 2 -7 2 -21 0 -30z m310 -25 c-2 -13 -4 -3 -4
22 0 25 2 35 4 23 2 -13 2 -33 0 -45z m-67 33 c0 -6 -4 -13 -10 -16 -5 -3 -10
1 -10 9 0 9 5 16 10 16 6 0 10 -4 10 -9z m-113 -33 c-3 -7 -5 -2 -5 12 0 14 2
19 5 13 2 -7 2 -19 0 -25z m-359 -13 c-6 -14 -13 -23 -15 -21 -5 5 15 46 22
46 3 0 -1 -11 -7 -25z m399 -22 c-3 -10 -5 -2 -5 17 0 19 2 27 5 18 2 -10 2
-26 0 -35z m113 22 c4 3 10 -10 12 -29 3 -24 0 -32 -9 -29 -7 3 -13 13 -13 22
0 9 -2 25 -4 36 -2 11 -1 14 1 7 3 -7 8 -10 13 -7z m-53 -32 c-3 -10 -5 -4 -5
12 0 17 2 24 5 18 2 -7 2 -21 0 -30z m-484 -3 c3 -11 2 -22 -2 -24 -4 -3 -8 6
-9 20 -2 29 4 31 11 4z m508 -16 c-9 -28 -9 -29 -10 -3 -1 14 2 29 6 32 11 12
13 2 4 -29z m-391 -28 c-30 -49 -37 -46 -9 4 12 22 25 38 27 35 2 -2 -6 -20
-18 -39z m111 17 c-12 -20 -14 -14 -5 12 4 9 9 14 11 11 3 -2 0 -13 -6 -23z
m176 -35 c-3 -8 -6 -5 -6 6 -1 11 2 17 5 13 3 -3 4 -12 1 -19z m78 -56 c-3 -3
-6 1 -6 9 -1 8 -5 1 -9 -16 -7 -28 -8 -27 -10 15 -2 42 -3 43 -10 15 l-8 -30
-1 36 c-1 51 10 56 31 13 10 -21 16 -40 13 -42z m31 13 c-1 -14 -5 -27 -8 -30
-4 -5 -4 19 1 48 3 19 9 4 7 -18z m-262 7 c3 -5 -1 -9 -9 -9 -8 0 -12 4 -9 9
3 4 7 8 9 8 2 0 6 -4 9 -8z m139 -12 c-3 -12 -8 -19 -11 -16 -5 6 5 36 12 36
2 0 2 -9 -1 -20z m-26 -12 c-3 -8 -6 -5 -6 6 -1 11 2 17 5 13 3 -3 4 -12 1
-19z m-161 -24 c-4 -9 -9 -15 -11 -12 -3 3 -3 13 1 22 4 9 9 15 11 12 3 -3 3
-13 -1 -22z m-196 -19 c-18 -19 -36 -32 -39 -30 -4 5 58 64 68 65 3 0 -10 -16
-29 -35z m354 -15 c-5 -5 -10 3 -11 18 -1 22 0 24 9 8 6 -10 6 -22 2 -26z
m226 -7 c0 -25 -2 -44 -4 -42 -8 10 -13 89 -5 89 5 0 9 -21 9 -47z m-272 -8
c-3 -3 -9 2 -12 12 -6 14 -5 15 5 6 7 -7 10 -15 7 -18z m245 10 c-3 -9 -8 -14
-10 -11 -3 3 -2 9 2 15 9 16 15 13 8 -4z m-68 -26 c-9 -17 -19 -29 -22 -26 -5
5 25 57 33 57 3 0 -3 -14 -11 -31z m-317 -14 c-3 -3 -9 2 -12 12 -6 14 -5 15
5 6 7 -7 10 -15 7 -18z m169 3 c-3 -8 -6 -5 -6 6 -1 11 2 17 5 13 3 -3 4 -12
1 -19z m-56 -11 c-10 -9 -11 -8 -5 6 3 10 9 15 12 12 3 -3 0 -11 -7 -18z m259
3 c0 -5 -5 -10 -11 -10 -5 0 -7 5 -4 10 3 6 8 10 11 10 2 0 4 -4 4 -10z m-221
-21 c1 8 4 12 7 9 3 -4 -4 -23 -16 -45 -14 -25 -19 -30 -15 -13 4 14 7 36 7
50 -1 23 0 23 8 5 5 -12 9 -14 9 -6z m75 -14 c-3 -14 -2 -25 4 -25 5 0 13 -7
16 -16 4 -10 2 -13 -6 -8 -7 5 -9 2 -5 -9 3 -8 -1 -21 -9 -27 -12 -11 -14 -5
-14 33 0 43 7 77 16 77 3 0 2 -11 -2 -25z m186 -9 c0 -6 -4 -5 -9 3 -7 11 -11
10 -20 -7 -6 -11 -11 -28 -11 -36 0 -9 -4 -16 -10 -16 -14 0 -13 11 5 55 13
30 18 35 30 25 8 -7 15 -18 15 -24z m-447 -4 c-3 -12 -9 -19 -14 -16 -5 3 -9
1 -9 -4 0 -14 -92 -103 -99 -96 -3 3 6 14 21 25 15 11 43 42 64 70 38 53 47
57 37 21z m320 7 c-8 -8 -13 -7 -18 2 -5 8 -4 10 3 5 7 -4 12 -2 12 5 0 7 3 9
7 6 4 -4 2 -12 -4 -18z m-302 -32 c-10 -9 -11 -8 -5 6 3 10 9 15 12 12 3 -3 0
-11 -7 -18z m107 -2 c-3 -3 -9 2 -12 12 -6 14 -5 15 5 6 7 -7 10 -15 7 -18z
m309 -37 c-3 -7 -5 -2 -5 12 0 14 2 19 5 13 2 -7 2 -19 0 -25z m-285 -2 c6 4
6 -2 -1 -14 -6 -12 -16 -24 -22 -28 -8 -4 -8 0 0 15 8 15 9 21 1 21 -6 0 -8 5
-4 12 6 9 9 9 12 0 2 -7 8 -9 14 -6z m-81 -38 c-11 -18 -21 -29 -21 -25 0 13
33 67 38 62 3 -2 -5 -19 -17 -37z m-321 8 c0 -2 -8 -10 -17 -17 -16 -13 -17
-12 -4 4 13 16 21 21 21 13z m415 -26 c-4 -12 -9 -19 -12 -17 -3 3 -2 15 2 27
4 12 9 19 12 17 3 -3 2 -15 -2 -27z m-301 -3 c-4 -12 -44 -22 -44 -11 0 4 30
18 47 23 1 1 0 -5 -3 -12z m40 -48 l-29 -29 -1 33 c0 22 4 34 13 34 7 0 13 -4
13 -9 0 -16 20 -8 21 10 0 12 2 13 6 3 3 -7 -8 -26 -23 -42z m143 -6 c-15 -15
-16 -14 -11 8 5 23 5 23 -10 5 -18 -23 -21 -14 -6 15 10 18 12 18 27 4 14 -15
14 -18 0 -32z m370 15 c-3 -8 -6 -5 -6 6 -1 11 2 17 5 13 3 -3 4 -12 1 -19z
m-629 -23 c-3 -3 -9 2 -12 12 -6 14 -5 15 5 6 7 -7 10 -15 7 -18z m292 11 c0
-2 -8 -10 -17 -17 -16 -13 -17 -12 -4 4 13 16 21 21 21 13z m-315 -27 c0 -8
-7 -14 -15 -15 -35 -2 -50 -16 -45 -43 3 -14 2 -19 -1 -11 -4 8 -11 18 -16 21
-11 7 52 71 67 66 5 -2 10 -10 10 -18z m225 -28 c0 -11 6 -21 13 -24 6 -2 9
-8 4 -12 -4 -5 -14 0 -22 11 -14 18 -15 17 -9 -11 l6 -30 -14 25 c-8 14 -10
27 -6 28 4 2 8 10 8 18 0 8 5 14 10 14 6 0 10 -9 10 -19z m-152 -9 c-6 -7 -14
-9 -17 -5 -4 4 -10 11 -14 14 -5 4 3 6 16 5 20 -1 23 -4 15 -14z m220 -32 c-7
-10 -14 -17 -17 -15 -4 4 18 35 25 35 2 0 -1 -9 -8 -20z m-386 -2 c-9 -9 -9
-15 1 -26 10 -13 9 -14 -11 -3 -13 7 -29 9 -36 4 -6 -4 0 2 14 14 26 23 54 33
32 11z m375 -57 c2 -3 10 4 19 15 15 19 15 19 5 -1 -6 -11 -20 -31 -31 -45
-18 -22 -20 -22 -11 -3 14 29 14 28 -10 30 -14 1 -19 -3 -15 -12 3 -9 0 -12
-10 -8 -7 3 -14 1 -14 -4 0 -4 -10 -14 -22 -22 -12 -8 -2 9 22 36 38 42 46 48
54 34 5 -9 11 -18 13 -20z m-77 25 c0 -2 -8 -10 -17 -17 -16 -13 -17 -12 -4 4
13 16 21 21 21 13z m-360 -38 c0 -19 -2 -20 -10 -8 -8 12 -10 12 -10 1 0 -8
-3 -11 -6 -8 -6 6 13 37 22 37 2 0 4 -10 4 -22z m261 4 c-5 -9 -18 -25 -29
-35 -12 -11 -18 -26 -15 -38 3 -10 0 -19 -6 -19 -22 0 -11 39 22 74 36 40 42
44 28 18z m29 -7 c-7 -9 -15 -13 -17 -11 -6 6 20 36 26 30 2 -2 -2 -10 -9 -19z
m26 -11 c-4 -9 -9 -15 -11 -12 -3 3 -3 13 1 22 4 9 9 15 11 12 3 -3 3 -13 -1
-22z m-326 -34 c0 -5 -5 -10 -11 -10 -5 0 -7 5 -4 10 3 6 8 10 11 10 2 0 4 -4
4 -10z m70 0 c-8 -5 -19 -10 -25 -10 -5 0 -3 5 5 10 8 5 20 10 25 10 6 0 3 -5
-5 -10z m328 -30 c-7 -10 -14 -17 -17 -15 -4 4 18 35 25 35 2 0 -1 -9 -8 -20z
m327 -26 l-15 -39 6 35 c7 38 14 54 20 47 2 -2 -3 -21 -11 -43z m-753 14 c-7
-7 -12 -8 -12 -2 0 6 3 14 7 17 3 4 9 5 12 2 2 -3 -1 -11 -7 -17z m203 -8
c-11 -12 -13 -20 -6 -20 7 0 9 -5 5 -12 -6 -9 -9 -9 -11 -1 -3 7 -12 9 -21 6
-9 -3 -4 6 12 21 34 31 47 34 21 6z m760 -152 c-5 -30 11 -39 17 -10 3 9 9 -6
15 -33 7 -28 15 -58 18 -68 5 -12 2 -17 -9 -17 -9 0 -16 6 -15 13 5 24 -13 76
-24 74 -15 -2 -26 -25 -26 -52 0 -15 3 -12 14 10 7 17 14 25 14 18 1 -6 4 -20
7 -30 5 -15 4 -15 -5 -3 -6 8 -11 10 -11 4 0 -6 6 -17 14 -24 8 -6 12 -18 9
-26 -8 -21 -23 -17 -23 6 0 11 -5 20 -11 20 -6 0 -9 -33 -8 -90 1 -50 -2 -94
-6 -98 -3 -4 -4 54 -2 128 3 74 6 155 6 179 0 25 3 63 7 85 l8 41 8 -50 c5
-27 6 -62 3 -77z m-800 103 c3 -6 -3 -9 -14 -8 -11 0 -17 5 -15 9 7 11 22 10
29 -1z m49 -16 c-10 -8 -23 -14 -29 -14 -5 -1 1 8 15 19 14 10 27 17 29 14 3
-2 -4 -11 -15 -19z m69 -19 c4 -10 1 -13 -9 -9 -7 3 -14 9 -14 14 0 14 17 10
23 -5z m37 -10 c0 -2 -8 -10 -17 -17 -16 -13 -17 -12 -4 4 13 16 21 21 21 13z
m-170 -26 c-6 -11 -13 -20 -16 -20 -2 0 0 9 6 20 6 11 13 20 16 20 2 0 0 -9
-6 -20z m105 -30 c-3 -5 -12 -10 -18 -10 -7 0 -6 4 3 10 19 12 23 12 15 0z
m549 -26 c3 -8 2 -12 -4 -9 -6 3 -10 10 -10 16 0 14 7 11 14 -7z m-729 -3 c3
-5 2 -12 -3 -15 -5 -3 -9 1 -9 9 0 17 3 19 12 6z m85 -51 c-11 -11 -23 -20
-26 -19 -4 0 -10 -3 -13 -8 -3 -4 -15 -15 -26 -23 -19 -14 -19 -14 -5 5 21 29
50 57 50 48 0 -4 5 -2 12 5 7 7 16 12 20 12 4 0 -1 -9 -12 -20z m653 5 c-3 -9
-8 -14 -10 -11 -3 3 -2 9 2 15 9 16 15 13 8 -4z m-833 -15 c-6 -11 -14 -20
-18 -20 -4 0 -15 -12 -24 -27 -10 -16 -18 -23 -18 -18 0 10 60 85 67 85 2 0
-1 -9 -7 -20z m75 -70 c-10 -11 -21 -18 -23 -15 -3 3 3 12 14 20 27 20 30 18
9 -5z m970 -12 c-5 -26 -4 -30 5 -18 10 13 11 12 6 -3 -3 -10 -6 -26 -6 -35
-1 -15 -2 -15 -15 2 -8 10 -12 23 -9 27 3 5 0 18 -7 30 -6 13 -7 19 -1 15 6
-3 13 -2 17 4 12 19 17 10 10 -22z m12 -100 c-3 -8 -6 -5 -6 6 -1 11 2 17 5
13 3 -3 4 -12 1 -19z m27 -28 c-5 -38 1 -46 29 -41 5 1 6 -3 3 -8 -3 -5 -16
-6 -28 -3 -22 5 -22 5 -5 -21 10 -15 14 -27 9 -27 -13 0 -36 52 -33 74 4 25
19 66 25 66 2 0 2 -18 0 -40z m26 -21 c0 -6 -4 -7 -10 -4 -5 3 -10 11 -10 16
0 6 5 7 10 4 6 -3 10 -11 10 -16z m-113 -29 c14 0 14 -2 0 -18 -10 -10 -17
-24 -17 -30 0 -7 -4 -12 -10 -12 -11 0 -14 63 -3 74 4 4 9 2 11 -3 2 -6 11
-11 19 -11z m69 -137 c-3 -7 -1 -13 5 -13 6 0 9 -8 8 -17 -4 -43 1 -74 12 -67
6 3 9 15 6 25 -9 33 1 21 36 -45 23 -45 31 -68 24 -75 -7 -7 -7 -19 2 -37 8
-19 9 -30 1 -38 -15 -15 -12 -23 10 -29 11 -3 20 -10 20 -17 0 -6 -18 1 -39
17 -22 15 -36 29 -30 31 5 2 4 12 -2 24 -6 11 -8 22 -5 25 7 7 25 -39 19 -49
-2 -5 1 -8 7 -8 6 0 8 15 4 43 -8 50 -12 56 -24 37 -13 -20 -12 -10 1 28 8 23
7 36 -2 54 l-12 23 -12 -29 c-9 -21 -20 -30 -39 -31 -28 -1 -28 -1 -31 35 -1
14 -5 41 -9 60 -8 35 -8 35 9 12 9 -13 14 -26 11 -29 -3 -3 -1 -12 5 -19 7 -8
7 -14 -1 -19 -16 -10 -12 -24 8 -19 12 4 17 16 19 42 1 28 -1 32 -7 17 -6 -15
-9 -8 -9 25 -1 102 -1 106 -11 90 -6 -10 -10 -11 -10 -2 0 26 -19 10 -23 -20
-2 -19 -3 -14 -2 9 1 24 8 50 16 59 11 13 15 9 31 -32 11 -26 17 -53 14 -61z
m48 73 c-3 -15 -8 -25 -11 -23 -2 3 -1 17 3 31 3 15 8 25 11 23 2 -3 1 -17 -3
-31z m-2016 -6 l65 0 -19 -21 c-10 -12 -35 -51 -54 -87 -28 -53 -40 -66 -60
-67 -14 -1 -43 -5 -66 -9 -37 -7 -41 -5 -52 19 -17 36 -15 51 10 99 36 67 49
78 82 72 15 -3 58 -6 94 -6z m1887 -10 c-4 -6 -1 -33 5 -61 7 -28 10 -52 7
-55 -8 -8 -30 95 -23 111 3 8 8 15 11 15 4 0 3 -5 0 -10z m156 -37 c-12 -20
-14 -14 -5 12 4 9 9 14 11 11 3 -2 0 -13 -6 -23z m-1903 -3 l32 0 -38 -72 -39
-72 -64 3 c-35 1 -65 4 -66 5 -1 1 17 26 40 56 24 30 46 63 50 74 5 13 13 17
30 12 12 -3 37 -6 55 -6z m1954 -63 c15 -16 28 -31 28 -35 0 -3 -16 9 -35 28
-19 19 -35 41 -34 49 0 14 1 14 6 1 4 -8 19 -28 35 -43z m-2374 -89 c25 -47
23 -53 -13 -44 -21 5 -25 12 -25 46 0 22 3 40 8 40 4 0 17 -19 30 -42z m3037
-95 c-4 -54 -10 -111 -15 -128 -5 -16 -16 -83 -26 -147 -15 -99 -20 -116 -32
-106 -15 13 -14 26 18 218 11 63 25 148 31 188 16 107 31 91 24 -25z m-755 34
c0 -5 -4 -5 -10 -2 -16 10 -12 -7 7 -27 9 -10 14 -20 11 -23 -11 -11 -37 43
-31 65 4 16 8 18 14 8 5 -7 9 -17 9 -21z m1320 13 c11 -7 0 -10 -37 -10 -29 0
-53 5 -53 10 0 13 70 13 90 0z m-1243 -42 c-3 -8 -6 -5 -6 6 -1 11 2 17 5 13
3 -3 4 -12 1 -19z m-177 -13 c0 -8 -2 -15 -4 -15 -2 0 -6 7 -10 15 -3 8 -1 15
4 15 6 0 10 -7 10 -15z m213 -16 c6 -4 5 -14 -3 -25 -9 -16 -11 -16 -6 -2 3
10 1 20 -4 23 -6 4 -10 -2 -10 -11 0 -10 -3 -15 -6 -11 -4 3 -3 19 1 34 5 19
9 23 13 13 3 -8 9 -18 15 -21z m-2792 -39 c4 -25 6 -46 4 -47 -2 -4 -204 25
-232 33 -13 4 -23 10 -23 14 0 11 22 17 90 25 30 3 62 10 70 16 8 5 31 8 50 7
33 -3 35 -5 41 -48z m523 8 c3 -17 2 -36 -3 -41 -12 -12 -92 12 -113 34 -31
31 -21 39 46 39 63 0 64 0 70 -32z m3726 7 c0 -30 -34 -43 -166 -64 -137 -21
-184 -38 -184 -66 0 -7 -4 -16 -9 -19 -5 -4 12 145 19 159 0 1 77 1 170 2 134
0 170 -2 170 -12z m-944 -10 c8 -20 -12 -44 -35 -42 -21 1 -21 34 0 48 20 13
29 11 35 -6z m-466 -27 c0 -6 -7 -5 -15 2 -12 10 -15 10 -15 0 0 -8 -2 -11 -5
-8 -3 3 -3 13 1 22 5 13 9 14 20 5 8 -6 14 -16 14 -21z m-170 -18 c-9 -6 -8
-10 6 -19 11 -6 15 -11 10 -11 -6 0 -20 10 -32 21 -17 16 -20 24 -11 34 9 9
14 9 26 -2 11 -12 12 -16 1 -23z m-855 -8 c-3 -3 -11 0 -18 7 -9 10 -8 11 6 5
10 -3 15 -9 12 -12z m1013 -6 c-7 -8 -17 -12 -22 -9 -4 3 -2 9 5 14 22 13 31
11 17 -5z m352 4 c0 -6 -11 -8 -27 -4 -40 10 -41 14 -5 14 18 0 32 -5 32 -10z
m-263 -62 c-3 -8 -6 -5 -6 6 -1 11 2 17 5 13 3 -3 4 -12 1 -19z m-3534 -65 c3
-21 9 -48 13 -60 6 -20 3 -23 -24 -23 -37 0 -40 5 -48 63 -6 42 -5 46 17 50
13 2 27 5 30 6 4 0 9 -16 12 -36z m5330 6 c12 -7 23 -13 25 -14 2 -2 -2 -21
-9 -44 -12 -40 -13 -41 -56 -41 l-44 0 19 28 c10 15 22 39 26 55 7 31 9 31 39
16z m-873 -130 c0 -17 4 -28 9 -25 5 4 7 -3 4 -13 -10 -37 -33 -11 -33 36 0
27 4 42 10 38 6 -3 10 -20 10 -36z m-3346 -21 c-5 -31 -11 -37 -38 -42 -45 -7
-244 -19 -253 -15 -8 4 -7 35 2 77 5 21 9 22 73 17 37 -3 99 -2 137 3 39 4 73
6 77 2 4 -3 5 -22 2 -42z m3689 -4 c22 -5 27 -12 27 -36 0 -29 -1 -29 -47 -25
-47 4 -48 4 -51 42 -3 35 -2 37 20 31 13 -4 35 -9 51 -12z m-4273 -8 c0 -27
-31 -86 -45 -86 -11 0 -15 12 -15 50 0 49 1 50 30 50 19 0 30 -5 30 -14z
m-136 -42 c-3 -27 -8 -51 -10 -53 -4 -4 -397 -62 -400 -58 -2 2 23 121 30 142
2 6 80 11 196 14 l192 3 -8 -48z m4900 -18 c9 -27 14 -51 11 -54 -4 -4 -327
32 -386 44 -27 5 -40 27 -31 53 4 11 41 13 197 10 l194 -4 15 -49z m-1054
-166 c51 -7 48 -7 -35 -8 -49 0 -101 4 -115 8 -33 11 74 11 150 0z"/>
<path d="M5923 7219 c-96 -78 -133 -141 -133 -224 0 -85 12 -96 39 -38 26 54
77 120 87 110 3 -3 -3 -21 -14 -39 -24 -39 -81 -148 -77 -148 1 0 24 10 51 22
110 48 154 107 154 207 0 59 -16 148 -29 163 -3 4 -39 -20 -78 -53z"/>
<path d="M5172 7391 c-75 -22 -167 -82 -189 -125 -23 -45 -33 -87 -27 -113 6
-22 8 -20 36 22 17 26 51 62 77 82 25 19 45 38 44 43 -1 4 8 5 21 3 20 -4 11
-16 -76 -104 -87 -88 -99 -107 -63 -99 114 25 174 63 210 131 19 36 46 181 34
178 -2 0 -32 -9 -67 -18z"/>
<path d="M4810 3510 c0 -5 5 -10 10 -10 6 0 10 5 10 10 0 6 -4 10 -10 10 -5 0
-10 -4 -10 -10z"/>
<path d="M4670 3470 c0 -5 5 -10 10 -10 6 0 10 5 10 10 0 6 -4 10 -10 10 -5 0
-10 -4 -10 -10z"/>
<path d="M6159 8455 c-54 -40 -99 -97 -105 -135 -3 -19 -7 -43 -9 -53 -3 -18
24 -97 34 -97 3 0 28 13 56 28 69 38 95 80 95 152 0 47 -21 130 -33 130 -2 0
-19 -11 -38 -25z"/>
<path d="M3485 8450 c3 -5 8 -10 11 -10 2 0 4 5 4 10 0 6 -5 10 -11 10 -5 0
-7 -4 -4 -10z"/>
<path d="M3882 8363 c-52 -112 -58 -157 -33 -253 l19 -75 13 33 c7 17 17 32
21 32 5 0 2 -16 -6 -35 l-15 -35 30 16 c36 18 88 68 112 106 35 56 12 161 -54
251 -19 25 -37 46 -40 47 -3 0 -24 -39 -47 -87z"/>
<path d="M3008 8393 c7 -3 16 -2 19 1 4 3 -2 6 -13 5 -11 0 -14 -3 -6 -6z"/>
<path d="M5175 8370 c-3 -6 1 -7 9 -4 18 7 21 14 7 14 -6 0 -13 -4 -16 -10z"/>
<path d="M5343 8304 c-32 -33 -66 -72 -74 -88 -21 -43 -15 -186 8 -193 17 -6
115 78 138 117 25 44 27 182 2 207 -13 14 -21 9 -74 -43z"/>
<path d="M2926 8335 c-9 -26 -7 -32 5 -12 6 10 9 21 6 23 -2 3 -7 -2 -11 -11z"/>
<path d="M6727 8339 c-9 -6 -15 -14 -12 -20 3 -5 0 -7 -7 -4 -17 6 -71 -42
-63 -55 3 -5 0 -7 -9 -4 -25 10 -66 -74 -66 -137 0 -62 16 -129 31 -129 35 0
123 79 150 134 26 55 27 227 0 226 -3 0 -14 -5 -24 -11z"/>
<path d="M4760 8331 c0 -5 28 -46 61 -91 68 -91 93 -152 104 -250 8 -64 8 -65
21 -35 28 65 9 187 -41 264 -16 23 -51 60 -78 81 -49 40 -67 48 -67 31z"/>
<path d="M6352 8279 c-88 -38 -173 -111 -197 -171 -16 -41 -34 -219 -21 -206
4 3 14 32 23 65 8 32 27 82 41 111 27 56 115 145 151 155 29 7 26 -7 -5 -24
-44 -23 -112 -107 -127 -157 -9 -26 -18 -71 -21 -101 l-5 -54 44 6 c81 12 151
60 200 138 27 41 47 152 41 224 -2 34 -7 40 -27 42 -13 2 -57 -11 -97 -28z"/>
<path d="M3479 8218 c-4 -209 25 -276 145 -336 56 -28 86 -38 86 -29 0 8 -21
69 -39 115 -11 28 -17 52 -12 52 11 0 69 -120 78 -161 l7 -34 12 40 c48 154
-21 283 -193 361 -41 19 -76 34 -79 34 -2 0 -4 -19 -5 -42z"/>
<path d="M3146 8228 c-31 -155 6 -262 113 -321 28 -16 51 -24 51 -19 0 6 -22
54 -49 108 -27 55 -47 101 -45 103 17 18 95 -119 109 -194 l8 -40 13 40 c7 22
13 67 13 101 1 89 -38 146 -152 220 -47 30 -55 30 -61 2z"/>
<path d="M7342 8115 c0 -16 2 -22 5 -12 2 9 2 23 0 30 -3 6 -5 -1 -5 -18z"/>
<path d="M6910 8117 c-161 -65 -225 -136 -211 -236 l6 -45 37 61 c36 58 68 94
68 77 0 -5 -22 -43 -50 -84 -27 -41 -47 -76 -45 -79 3 -2 32 4 65 14 103 31
163 122 158 239 -3 63 -3 63 -28 53z"/>
<path d="M7102 8078 c-7 -7 -12 -19 -12 -27 0 -11 -3 -12 -8 -4 -9 14 -37 0
-37 -19 -1 -7 -7 -12 -14 -10 -18 4 -53 -29 -47 -44 3 -8 0 -11 -8 -8 -18 7
-35 -59 -34 -134 l1 -63 19 31 c10 17 15 36 12 42 -4 6 -3 8 4 4 10 -6 57 49
57 68 0 5 10 11 23 12 30 5 28 -1 -17 -60 -47 -63 -58 -82 -43 -72 7 4 12 1
12 -8 0 -21 4 -20 48 8 47 30 66 52 81 95 15 45 15 142 0 121 -8 -12 -9 -10
-4 7 6 23 -3 73 -14 73 -4 0 -12 -5 -19 -12z m-82 -113 c0 -5 -5 -3 -10 5 -5
8 -10 20 -10 25 0 6 5 3 10 -5 5 -8 10 -19 10 -25z m15 -25 c-3 -5 -12 -10
-18 -10 -7 0 -6 4 3 10 19 12 23 12 15 0z m2 -130 c-12 -17 -16 -18 -20 -6 -4
9 -1 15 6 13 7 -1 11 6 10 17 -1 12 2 15 9 8 7 -7 6 -17 -5 -32z m43 11 c0 -5
-7 -11 -14 -14 -10 -4 -13 -1 -9 9 6 15 23 19 23 5z"/>
<path d="M4616 8010 c-31 -86 -35 -177 -8 -230 21 -42 113 -115 123 -98 4 7
-3 33 -17 59 -29 58 -76 200 -69 207 14 15 82 -103 109 -188 13 -39 25 -73 29
-76 14 -14 47 77 47 128 -1 83 -33 137 -140 230 -48 42 -46 43 -74 -32z"/>
<path d="M7448 8053 c6 -2 18 -2 25 0 6 3 1 5 -13 5 -14 0 -19 -2 -12 -5z"/>
<path d="M5665 8018 c-82 -42 -133 -110 -149 -199 l-6 -35 47 6 c106 14 159
71 170 183 7 77 3 79 -62 45z"/>
<path d="M2923 7980 c-17 -4 -20 -9 -13 -20 5 -8 10 -26 10 -41 0 -27 44 -103
76 -131 24 -21 94 -47 147 -55 l38 -5 -35 47 c-20 25 -36 51 -36 55 0 19 28
-3 51 -40 30 -50 39 -50 32 -2 -14 105 -89 179 -192 191 -31 4 -66 4 -78 1z"/>
<path d="M7414 7911 c-109 -59 -154 -111 -168 -191 -6 -34 16 -135 33 -153 23
-24 152 68 180 128 21 45 27 152 12 217 l-6 27 -51 -28z"/>
<path d="M2660 7837 c0 -12 7 -35 15 -50 8 -15 9 -25 4 -21 -7 4 -9 0 -6 -12
4 -11 9 -31 13 -46 3 -16 11 -25 17 -21 6 3 7 1 3 -5 -4 -7 1 -26 11 -43 19
-33 67 -62 121 -74 32 -7 32 -6 21 19 -7 14 -16 23 -22 19 -6 -3 -7 -1 -4 5 9
14 -3 43 -14 36 -5 -3 -6 2 -3 10 3 9 1 16 -5 16 -6 0 -11 6 -11 13 0 13 -60
73 -70 70 -3 -1 -7 7 -7 18 -2 26 12 24 54 -8 43 -33 77 -86 93 -144 21 -76
21 -76 30 -54 14 32 11 113 -4 149 -32 77 -107 132 -190 140 -42 4 -46 3 -46
-17z"/>
<path d="M6980 7769 c0 -5 5 -7 10 -4 6 3 10 8 10 11 0 2 -4 4 -10 4 -5 0 -10
-5 -10 -11z"/>
<path d="M2380 7719 c0 -23 31 -121 49 -157 45 -88 126 -142 216 -142 79 0 82
8 32 76 -24 32 -60 74 -81 92 -40 35 -40 40 2 18 38 -20 96 -83 126 -136 26
-45 26 -45 26 -14 0 51 -29 132 -61 169 -17 19 -49 44 -72 55 -43 21 -237 53
-237 39z"/>
<path d="M5649 7697 c-71 -28 -120 -61 -148 -102 -24 -35 -38 -117 -27 -160
l7 -27 40 46 c42 48 99 93 99 79 0 -4 -18 -28 -40 -53 -53 -58 -60 -68 -60
-76 0 -10 72 6 115 26 72 35 123 147 110 241 -8 57 -13 58 -96 26z"/>
<path d="M7665 7710 c3 -5 8 -10 11 -10 2 0 4 5 4 10 0 6 -5 10 -11 10 -5 0
-7 -4 -4 -10z"/>
<path d="M7630 7699 c12 -8 10 -9 -7 -4 -30 8 -92 -23 -72 -37 10 -7 9 -8 -7
-4 -21 6 -60 -27 -83 -71 -16 -32 -13 -52 4 -23 17 30 20 21 4 -14 -7 -14 -16
-23 -20 -20 -5 3 -9 -5 -9 -17 0 -21 0 -21 33 5 17 14 52 36 77 48 25 12 47
24 50 27 3 3 14 7 25 9 37 5 44 11 40 32 -2 11 0 20 6 20 5 0 9 -6 9 -13 0
-18 28 -17 35 1 3 8 3 17 0 20 -3 3 -5 0 -5 -7 0 -7 -5 -9 -11 -6 -6 4 -8 20
-4 38 5 24 4 28 -4 17 -9 -12 -14 -13 -31 -2 -25 15 -52 17 -30 1z m-34 -30
c3 -6 1 -16 -6 -22 -10 -9 -11 -9 -5 2 4 8 2 17 -6 22 -9 6 -10 9 -2 9 6 0 15
-5 19 -11z m-66 -33 c0 -2 -8 -10 -17 -17 -16 -13 -17 -12 -4 4 13 16 21 21
21 13z"/>
<path d="M2248 7653 c7 -3 16 -2 19 1 4 3 -2 6 -13 5 -11 0 -14 -3 -6 -6z"/>
<path d="M7080 7638 c-8 -12 -23 -30 -34 -41 -25 -26 -56 -118 -56 -164 1 -52
31 -115 67 -135 l30 -18 7 38 c3 20 6 66 7 102 0 50 2 60 9 42 6 -13 11 -47
12 -77 2 -30 6 -55 10 -55 4 0 19 18 33 40 19 30 25 53 25 93 0 57 -16 117
-31 117 -5 0 -9 6 -9 13 0 7 -13 25 -28 40 l-28 27 -14 -22z"/>
<path d="M7680 7599 c0 -15 18 -19 23 -6 3 8 -1 14 -9 14 -8 0 -14 -4 -14 -8z"/>
<path d="M7640 7579 c0 -5 5 -7 10 -4 6 3 10 8 10 11 0 2 -4 4 -10 4 -5 0 -10
-5 -10 -11z"/>
<path d="M2168 7573 c6 -2 18 -2 25 0 6 3 1 5 -13 5 -14 0 -19 -2 -12 -5z"/>
<path d="M7665 7569 c-4 -6 -5 -12 -2 -15 2 -3 7 2 10 11 7 17 1 20 -8 4z"/>
<path d="M4080 7523 c0 -53 23 -126 54 -173 25 -38 83 -72 143 -85 29 -6 32
-4 43 30 7 21 9 55 6 80 -12 79 -114 166 -213 182 -33 6 -33 5 -33 -34z m153
-130 c52 -73 69 -103 60 -103 -4 0 -22 22 -40 48 -18 26 -47 65 -65 86 -27 33
-29 37 -9 27 12 -7 37 -33 54 -58z"/>
<path d="M7628 7541 c10 -6 4 -12 -20 -24 -19 -9 -26 -17 -16 -17 9 0 20 5 23
10 9 15 27 12 19 -2 -4 -7 2 -5 12 5 16 15 17 19 4 27 -8 5 -19 10 -25 10 -5
0 -4 -4 3 -9z"/>
<path d="M3055 7478 c24 -110 116 -200 218 -214 57 -8 137 3 136 19 0 19 -57
58 -117 82 -107 42 -100 38 -74 43 53 9 174 -48 207 -98 l16 -25 -5 39 c-8 58
-55 128 -100 149 -49 23 -131 37 -219 37 l-69 0 7 -32z"/>
<path d="M7488 7479 c-5 -4 -2 -9 7 -13 18 -7 93 3 99 13 5 8 -92 8 -106 0z"/>
<path d="M6846 7455 c-27 -13 -59 -26 -72 -29 -13 -4 -24 -11 -24 -16 0 -6 -7
-10 -16 -10 -8 0 -13 -4 -10 -9 3 -5 -1 -12 -10 -15 -8 -3 -12 -2 -9 4 13 21
-10 8 -59 -34 -89 -76 -132 -179 -117 -282 5 -32 9 -49 10 -37 0 12 6 25 13
29 7 5 8 3 3 -7 -5 -8 12 9 38 36 25 28 49 58 52 68 4 9 10 17 15 17 4 0 10 9
13 20 3 11 10 20 16 20 10 0 4 -30 -9 -40 -10 -7 -80 -124 -80 -133 0 -4 20
-7 43 -7 63 0 163 53 204 108 46 60 63 128 63 244 0 54 -3 98 -7 98 -5 0 -30
-11 -57 -25z"/>
<path d="M8130 7441 c0 -25 6 -27 13 -6 4 8 2 17 -3 20 -6 4 -10 -3 -10 -14z"/>
<path d="M1868 7413 c6 -2 18 -2 25 0 6 3 1 5 -13 5 -14 0 -19 -2 -12 -5z"/>
<path d="M7688 7400 c-20 -11 -46 -32 -57 -46 -22 -28 -37 -71 -29 -80 3 -2
29 7 59 21 83 38 92 29 15 -14 l-69 -39 43 -22 c87 -44 196 -6 256 89 19 31
34 61 34 67 0 19 -88 44 -154 44 -40 -1 -73 -7 -98 -20z"/>
<path d="M2281 7400 c-41 -10 -111 -41 -111 -49 0 -11 103 -108 127 -120 38
-19 152 -9 160 15 2 6 -24 23 -58 40 -34 16 -55 30 -46 32 9 2 44 -10 77 -27
l62 -30 -7 27 c-19 82 -113 133 -204 112z"/>
<path d="M1793 7355 c0 -22 2 -30 4 -17 2 12 2 30 0 40 -3 9 -5 -1 -4 -23z"/>
<path d="M2020 7253 c6 -49 31 -105 57 -131 8 -8 35 -17 60 -20 l46 -5 -6 42
c-7 54 -39 101 -92 135 -63 39 -73 36 -65 -21z"/>
<path d="M4243 7184 c3 -4 0 -13 -8 -21 -17 -16 -34 -76 -44 -150 -9 -59 7
-132 36 -171 19 -27 107 -92 124 -92 4 0 0 15 -11 33 -28 48 -73 287 -54 287
9 0 29 -63 60 -194 9 -39 23 -85 31 -104 l14 -34 31 28 c16 16 34 40 40 54 14
36 11 134 -6 174 -20 48 -80 112 -149 157 -53 35 -81 49 -64 33z"/>
<path d="M8072 7150 c-23 -17 -42 -34 -42 -38 0 -13 23 -32 40 -32 13 0 70 76
70 94 0 14 -30 4 -68 -24z"/>
<path d="M8298 7173 c7 -3 16 -2 19 1 4 3 -2 6 -13 5 -11 0 -14 -3 -6 -6z"/>
<path d="M2380 7143 c0 -35 27 -130 43 -153 22 -31 102 -87 146 -101 20 -6 41
-17 47 -24 7 -10 11 -4 12 23 3 60 -8 123 -20 116 -7 -4 -8 -2 -4 5 24 38
-100 132 -176 134 -20 1 -34 5 -32 9 3 5 0 8 -5 8 -6 0 -11 -8 -11 -17z"/>
<path d="M3326 7097 c-13 -101 -8 -190 12 -237 20 -47 70 -99 120 -123 32 -17
96 -30 104 -21 3 3 -5 33 -18 67 -36 91 -28 114 11 33 18 -38 36 -78 39 -88 8
-31 24 -12 42 48 29 102 -15 211 -113 277 -37 24 -176 97 -187 97 -2 0 -7 -24
-10 -53z"/>
<path d="M7825 7134 c-81 -19 -134 -63 -172 -142 -14 -29 -23 -55 -22 -57 2
-2 30 16 61 40 47 35 148 83 148 70 0 -2 -26 -20 -59 -39 -58 -36 -88 -62 -79
-71 2 -3 43 4 90 14 47 10 91 15 97 11 10 -6 -106 -45 -194 -65 l-30 -7 45
-20 c104 -45 197 -24 354 82 l79 53 -39 33 c-81 69 -210 114 -279 98z"/>
<path d="M1817 6950 c3 -11 0 -20 -6 -20 -6 0 -11 -10 -11 -22 0 -18 2 -20 9
-9 7 10 9 1 8 -30 -1 -29 4 -52 17 -69 11 -15 16 -18 12 -7 -5 17 -5 17 19 0
28 -21 33 -35 8 -26 -16 6 -16 5 -4 -10 7 -9 26 -17 41 -17 15 0 30 -6 33 -14
7 -16 75 -26 81 -11 3 6 9 4 15 -5 10 -13 13 -13 22 3 6 9 14 15 18 12 18 -10
0 99 -22 139 -20 35 -27 41 -53 39 -19 -2 -24 0 -15 6 11 7 8 13 -13 26 -25
17 -27 17 -46 0 -11 -10 -23 -15 -27 -11 -5 4 1 13 12 19 19 11 19 11 -5 18
-14 4 -41 7 -62 8 -31 1 -35 -2 -31 -19z m73 0 c0 -5 -7 -10 -16 -10 -8 0 -12
5 -9 10 3 6 10 10 16 10 5 0 9 -4 9 -10z m77 -26 c-3 -3 -12 -4 -19 -1 -8 3
-5 6 6 6 11 1 17 -2 13 -5z m68 -48 c0 -9 7 -21 15 -26 8 -5 11 -12 7 -16 -8
-8 -46 36 -47 54 0 8 6 12 12 10 7 -3 13 -12 13 -22z m-124 -84 c-7 -2 -18 1
-23 6 -8 8 -4 9 13 5 13 -4 18 -8 10 -11z"/>
<path d="M8150 6908 c0 -4 -7 -4 -17 -1 -12 5 -14 3 -8 -7 6 -10 4 -12 -7 -8
-21 8 -39 -5 -41 -30 0 -11 -5 -18 -9 -16 -5 3 -6 10 -3 15 4 5 2 9 -4 9 -22
0 -23 -24 -1 -42 12 -10 19 -18 14 -18 -4 0 -15 7 -24 15 -15 14 -19 13 -34
-4 -10 -11 -20 -38 -23 -62 -6 -41 -5 -42 20 -35 16 4 27 1 31 -7 5 -9 7 -9
12 2 5 11 8 11 15 0 7 -12 9 -12 9 0 0 10 3 11 14 2 17 -14 56 -1 88 29 12 11
29 20 37 20 11 0 7 -8 -13 -25 -16 -14 -24 -25 -18 -25 6 0 17 7 26 15 8 8 18
15 23 16 4 0 22 17 38 37 19 22 24 34 13 30 -11 -5 -18 0 -21 13 -6 21 18 28
25 7 3 -9 6 -9 12 0 4 7 2 12 -3 12 -17 0 -13 21 7 37 15 13 14 13 -7 2 -21
-10 -23 -9 -18 4 4 10 -1 18 -13 22 -25 8 -120 2 -120 -7z m117 -4 c-3 -3 -12
-4 -19 -1 -8 3 -5 6 6 6 11 1 17 -2 13 -5z m-7 -34 c0 -5 -2 -10 -4 -10 -3 0
-8 5 -11 10 -3 6 -1 10 4 10 6 0 11 -4 11 -10z m-4 -86 c-4 -9 -9 -15 -11 -12
-3 3 -3 13 1 22 4 9 9 15 11 12 3 -3 3 -13 -1 -22z"/>
<path d="M1440 6833 c0 -6 8 -17 18 -24 16 -13 16 -13 2 6 -8 11 -16 22 -17
24 -2 2 -3 0 -3 -6z"/>
<path d="M7742 6727 c-52 -58 -91 -133 -98 -188 -5 -48 -3 -62 21 -109 38 -75
48 -84 70 -60 10 11 15 20 10 20 -4 0 -2 7 5 15 7 8 16 13 20 10 12 -8 43 33
34 46 -4 7 -3 10 3 6 6 -4 17 1 24 10 19 22 18 158 0 175 -11 11 -12 10 -6 -1
5 -9 4 -12 -3 -8 -5 4 -8 15 -5 26 2 10 -3 25 -11 34 -9 8 -16 20 -16 25 0 20
-29 20 -48 -1z m32 5 c3 -5 -1 -9 -9 -9 -8 0 -12 4 -9 9 3 4 7 8 9 8 2 0 6 -4
9 -8z"/>
<path d="M4629 6693 c-8 -105 20 -179 84 -216 25 -15 48 -27 51 -27 10 0 7 83
-5 123 -10 38 -68 105 -108 127 -18 9 -21 8 -22 -7z m55 -118 c4 -20 3 -25 -3
-15 -5 8 -11 31 -15 50 -7 41 7 13 18 -35z"/>
<path d="M7465 6702 c-11 -2 -53 -15 -93 -29 -82 -29 -152 -84 -182 -144 -21
-41 -27 -142 -10 -169 11 -17 8 -21 54 64 41 73 106 146 131 146 13 0 13 -2
-1 -17 -32 -37 -82 -111 -119 -177 l-38 -69 39 7 c93 17 169 68 204 136 21 41
43 169 38 220 -2 29 -7 35 -23 32z"/>
<path d="M3600 6696 c0 -17 31 -64 64 -95 51 -49 45 -25 -10 40 -58 68 -54 64
-54 55z"/>
<path d="M1637 6664 l-48 -15 29 -37 c88 -111 154 -141 241 -111 17 6 31 15
31 20 0 5 -30 24 -67 42 -41 19 -61 33 -50 35 9 2 45 -10 79 -27 34 -17 62
-31 64 -31 7 0 -21 67 -35 84 -44 52 -149 69 -244 40z"/>
<path d="M8275 6666 c-35 -16 -76 -59 -93 -98 -6 -16 -10 -28 -8 -28 2 0 29
12 60 26 31 14 62 23 69 21 6 -3 -6 -12 -28 -21 -22 -9 -50 -22 -62 -28 -22
-11 -22 -12 -4 -24 49 -35 141 -26 191 19 31 28 104 116 99 120 -2 2 -23 9
-45 15 -54 16 -141 15 -179 -2z"/>
<path d="M2349 6618 c-30 -70 -37 -173 -15 -217 19 -37 84 -106 92 -98 5 5 -6
50 -27 105 -12 30 -12 83 0 62 10 -19 39 -106 46 -144 l6 -29 23 22 c30 29 49
92 40 139 -6 36 -30 92 -43 102 -4 3 -14 18 -24 33 -10 15 -22 25 -27 22 -6
-4 -10 0 -10 8 0 8 -8 21 -19 31 -17 16 -19 14 -42 -36z"/>
<path d="M6413 6659 c-26 -8 -139 -99 -123 -99 3 0 27 11 54 25 34 17 66 25
103 25 72 0 67 -16 -7 -24 -69 -8 -120 -24 -120 -37 0 -20 74 -41 130 -37 61
4 112 35 151 89 l20 28 -32 17 c-39 20 -132 27 -176 13z"/>
<path d="M2079 6626 c17 -27 61 -137 61 -152 0 -2 -26 10 -59 26 -32 17 -73
33 -90 36 -55 11 -40 -10 74 -100 44 -35 90 -76 103 -90 19 -23 25 -24 42 -14
11 7 22 18 25 25 9 25 -86 219 -135 276 -33 38 -46 34 -21 -7z"/>
<path d="M8786 6523 c-6 -14 -5 -15 5 -6 7 7 10 15 7 18 -3 3 -9 -2 -12 -12z"/>
<path d="M7026 6499 c-34 -41 -66 -122 -66 -172 0 -54 16 -91 55 -127 l28 -25
-7 30 c-13 64 -19 168 -9 162 6 -4 13 -28 17 -54 3 -26 11 -62 18 -79 9 -27
15 -31 29 -24 9 5 20 21 23 35 8 30 -12 155 -25 155 -4 0 -5 7 -2 17 5 12 3
14 -7 8 -9 -5 -11 -4 -6 4 4 6 -3 25 -15 43 -13 17 -18 28 -11 24 8 -5 10 -2
6 8 -8 20 -6 20 -28 -5z"/>
<path d="M2755 6475 c-5 -2 -27 -6 -47 -10 -48 -8 -49 -26 -9 -111 27 -57 95
-129 112 -118 4 2 10 0 14 -6 13 -21 155 -8 155 15 0 19 -83 90 -148 126 -68
38 -67 38 -60 44 3 3 29 -1 59 -9 30 -8 50 -15 44 -15 -5 -1 5 -10 24 -22 18
-11 34 -19 35 -17 1 2 7 11 14 20 11 13 11 21 0 40 -18 31 -39 47 -57 40 -8
-3 -12 -1 -8 5 10 15 -93 30 -128 18z m75 -110 c0 -2 -6 -5 -13 -8 -8 -3 -14
1 -14 8 0 7 6 11 14 8 7 -3 13 -6 13 -8z m73 -85 c3 -11 1 -18 -4 -14 -5 3 -9
12 -9 20 0 20 7 17 13 -6z"/>
<path d="M2950 6421 c0 -6 4 -13 10 -16 6 -3 7 1 4 9 -7 18 -14 21 -14 7z"/>
<path d="M1431 6372 c1 -92 63 -189 135 -212 22 -7 49 -16 60 -21 19 -6 23 -3
28 22 8 41 -9 109 -36 151 -34 52 -75 80 -134 94 l-54 12 1 -46z m110 1 c13
-16 12 -17 -3 -4 -10 7 -18 15 -18 17 0 8 8 3 21 -13z"/>
<path d="M8604 6406 c-68 -17 -132 -65 -155 -117 -19 -41 -25 -115 -11 -135
10 -15 42 -25 42 -14 0 6 9 10 20 10 27 0 107 74 131 121 16 33 39 151 28 148
-2 0 -27 -6 -55 -13z"/>
<path d="M8194 6390 c-44 -6 -73 -22 -129 -71 -37 -33 -47 -56 -17 -44 55 24
122 35 175 29 110 -12 61 -25 -152 -39 -36 -2 -57 -9 -63 -19 -7 -12 -4 -16
12 -16 11 0 20 -4 20 -9 0 -12 92 -41 133 -41 42 0 94 17 127 42 28 22 110
116 110 127 0 22 -148 50 -216 41z"/>
<path d="M1745 6373 c-60 -18 -57 -16 -49 -37 3 -9 11 -13 17 -9 6 3 7 1 3 -5
-10 -16 70 -99 119 -125 59 -30 119 -28 185 7 30 15 56 30 58 31 2 1 -5 21
-14 44 -11 28 -31 52 -63 74 -41 29 -54 32 -126 34 -50 1 -99 -4 -130 -14z"/>
<path d="M2956 6368 c-15 -21 -7 -58 14 -58 5 0 12 -10 15 -21 6 -18 9 -19 21
-8 14 15 9 59 -8 59 -5 0 -7 4 -4 9 7 12 -3 41 -15 41 -4 0 -15 -10 -23 -22z
m29 3 c3 -5 1 -12 -5 -16 -5 -3 -10 1 -10 9 0 18 6 21 15 7z"/>
<path d="M3160 6298 c-30 -49 -53 -135 -46 -171 4 -18 18 -45 31 -62 l25 -30
1 70 c1 39 5 84 8 100 7 29 8 28 15 -16 4 -25 5 -78 3 -117 -3 -40 -2 -72 2
-72 4 0 20 22 34 49 44 80 33 188 -26 264 -19 23 -24 22 -47 -15z"/>
<path d="M1395 6207 c-81 -24 -79 -39 7 -83 39 -20 61 -24 105 -22 31 2 58 8
59 13 3 11 -100 99 -119 102 -7 1 -30 -4 -52 -10z"/>
<path d="M8590 6180 c-24 -22 -50 -40 -56 -40 -13 0 -26 -25 -17 -34 4 -3 29
-6 57 -6 75 0 166 47 166 85 0 5 -80 35 -93 35 -6 0 -32 -18 -57 -40z"/>
<path d="M990 6181 c0 -6 4 -13 10 -16 6 -3 7 1 4 9 -7 18 -14 21 -14 7z"/>
<path d="M816 6157 c3 -10 9 -15 12 -12 3 3 0 11 -7 18 -10 9 -11 8 -5 -6z"/>
<path d="M906 6157 c3 -10 9 -15 12 -12 3 3 0 11 -7 18 -10 9 -11 8 -5 -6z"/>
<path d="M9240 6140 c-9 -6 -10 -10 -3 -10 6 0 15 5 18 10 8 12 4 12 -15 0z"/>
<path d="M9355 6129 c-4 -6 -5 -12 -2 -15 2 -3 7 2 10 11 7 17 1 20 -8 4z"/>
<path d="M695 6079 c-4 -6 -5 -12 -2 -15 2 -3 7 2 10 11 7 17 1 20 -8 4z"/>
<path d="M3397 6068 c-66 -108 -71 -129 -56 -228 l12 -78 25 66 c13 37 25 75
25 84 1 9 5 14 9 12 4 -3 8 2 8 11 0 9 4 14 9 11 10 -6 2 -48 -23 -115 -9 -24
-16 -45 -16 -47 0 -2 16 6 36 18 69 41 97 165 49 218 -10 11 -14 20 -10 20 5
0 -2 11 -15 25 -29 31 -36 31 -53 3z"/>
<path d="M9272 6085 c4 -4 0 -14 -10 -21 -9 -7 -12 -14 -6 -14 6 0 17 6 23 14
9 11 9 16 -1 22 -7 4 -10 4 -6 -1z"/>
<path d="M3711 6039 c7 -13 12 -28 11 -32 -3 -10 34 -120 50 -151 18 -35 72
-88 108 -106 51 -26 130 -37 130 -18 0 36 -87 127 -175 183 -52 32 -8 28 56
-6 57 -31 129 -102 129 -128 0 -7 5 -22 12 -34 11 -21 11 -21 19 -2 18 46 2
165 -22 165 -5 0 -9 6 -9 13 0 20 -40 59 -56 53 -8 -3 -11 0 -8 8 4 9 -11 20
-43 31 -26 9 -56 21 -66 26 -10 6 -48 13 -84 16 l-65 6 13 -24z"/>
<path d="M9566 6022 c-9 -27 -5 -34 10 -24 7 4 8 16 4 27 -7 19 -7 19 -14 -3z"/>
<path d="M6765 6015 c-5 -2 -28 -6 -49 -10 -32 -5 -55 -23 -136 -106 -54 -54
-96 -99 -94 -99 1 0 15 5 30 11 20 7 47 7 94 -2 57 -10 75 -9 124 5 49 15 70
29 134 93 83 83 83 87 -4 98 -27 3 -58 7 -69 9 -11 2 -24 3 -30 1z m55 -81 c0
-10 -210 -106 -223 -101 -6 3 26 23 73 44 142 66 150 69 150 57z"/>
<path d="M9326 5983 c-6 -14 -5 -15 5 -6 7 7 10 15 7 18 -3 3 -9 -2 -12 -12z"/>
<path d="M1615 5975 c-5 -2 -23 -6 -38 -9 l-28 -7 18 -30 c10 -17 37 -48 60
-70 39 -36 47 -39 98 -39 30 0 55 3 55 8 0 19 -35 54 -78 77 -38 20 -41 24
-17 19 46 -10 92 -42 99 -68 3 -13 12 -26 20 -29 19 -8 -8 60 -38 95 -34 40
-110 67 -151 53z"/>
<path d="M8349 5957 c-33 -22 -97 -112 -87 -122 3 -3 16 5 29 19 31 30 98 76
113 76 6 0 -12 -15 -40 -34 -28 -19 -58 -46 -67 -60 l-17 -26 37 0 c69 0 116
20 166 70 26 26 47 54 47 62 0 41 -126 52 -181 15z"/>
<path d="M7569 5949 c-70 -16 -149 -60 -194 -107 -25 -26 -43 -53 -40 -60 3
-7 1 -10 -5 -7 -5 3 -14 -13 -20 -36 -17 -63 7 -199 25 -144 10 31 37 81 56
107 25 32 35 15 12 -19 -11 -15 -26 -47 -35 -70 -16 -42 -16 -42 3 -33 10 6
19 9 19 6 0 -3 24 2 53 11 132 39 180 113 211 331 4 29 2 32 -22 31 -15 -1
-43 -5 -63 -10z"/>
<path d="M2342 5848 c4 -122 22 -166 85 -214 38 -29 130 -60 143 -48 2 3 -10
33 -27 67 -18 33 -30 63 -28 65 9 10 54 -45 70 -86 10 -23 21 -42 25 -42 12 0
20 39 20 99 0 107 -66 188 -194 236 -102 38 -98 42 -94 -77z"/>
<path d="M1325 5916 c-27 -13 -59 -31 -70 -40 -20 -16 -19 -17 28 -60 46 -41
123 -76 168 -76 27 0 110 42 106 54 -4 11 -89 36 -124 36 -13 0 -23 5 -23 10
0 14 56 12 117 -3 57 -15 58 -13 12 40 -56 66 -129 79 -214 39z"/>
<path d="M8592 5923 c-18 -8 -46 -34 -62 -56 -30 -41 -33 -60 -6 -38 8 7 41
14 73 17 56 4 57 4 28 -10 -16 -8 -50 -20 -75 -26 -44 -12 -44 -12 -20 -26 14
-8 48 -21 75 -29 44 -13 57 -13 96 -2 55 17 151 86 147 107 -2 8 -32 29 -66
47 -72 37 -136 43 -190 16z"/>
<path d="M7812 5901 c-35 -32 -52 -68 -52 -107 0 -30 12 -30 50 -2 29 21 50
69 50 116 0 29 -9 28 -48 -7z m25 -22 c2 -16 -1 -19 -9 -11 -5 5 -7 15 -4 21
10 15 12 14 13 -10z"/>
<path d="M380 5831 c0 -6 4 -13 10 -16 6 -3 7 1 4 9 -7 18 -14 21 -14 7z"/>
<path d="M9606 5784 c-5 -14 -4 -15 9 -4 17 14 19 20 6 20 -5 0 -12 -7 -15
-16z"/>
<path d="M490 5759 c0 -9 9 -24 20 -34 26 -23 26 -8 0 25 -14 18 -20 21 -20 9z"/>
<path d="M9850 5759 c0 -5 5 -7 10 -4 6 3 10 8 10 11 0 2 -4 4 -10 4 -5 0 -10
-5 -10 -11z"/>
<path d="M250 5735 c0 -8 4 -15 10 -15 5 0 7 7 4 15 -4 8 -8 15 -10 15 -2 0
-4 -7 -4 -15z"/>
<path d="M9670 5695 c-11 -13 -10 -14 4 -9 9 3 16 10 16 15 0 13 -6 11 -20 -6z"/>
<path d="M9966 5643 c-6 -14 -5 -15 5 -6 7 7 10 15 7 18 -3 3 -9 -2 -12 -12z"/>
<path d="M61 5634 c0 -11 3 -14 6 -6 3 7 2 16 -1 19 -3 4 -6 -2 -5 -13z"/>
<path d="M8685 5588 c-22 -4 -59 -24 -83 -42 l-43 -34 58 -7 c69 -8 133 -23
133 -32 0 -3 -43 -3 -96 1 -109 7 -108 8 -36 -69 49 -51 118 -77 179 -68 41 6
179 69 190 86 8 14 -113 128 -157 149 -47 21 -96 27 -145 16z"/>
<path d="M1234 5554 c-55 -33 -144 -110 -144 -125 0 -3 36 -25 81 -48 91 -46
159 -54 227 -25 43 18 97 67 119 108 14 27 13 30 -18 62 -44 46 -87 64 -151
64 -44 0 -65 -7 -114 -36z m286 -64 c0 -15 -39 -21 -120 -18 l-75 3 45 11 c57
15 150 17 150 4z"/>
<path d="M8375 5313 c-29 -15 -45 -31 -45 -44 0 -4 21 -9 48 -13 53 -7 180
-64 146 -65 -12 -1 -50 8 -85 18 -134 41 -139 41 -139 21 0 -25 76 -103 125
-129 53 -28 110 -27 192 4 37 14 69 27 70 29 14 14 -115 159 -134 151 -8 -2
-12 -1 -9 4 9 14 -58 41 -101 41 -21 -1 -51 -8 -68 -17z"/>
<path d="M3238 5087 c-3 -79 20 -155 44 -141 7 4 8 3 4 -4 -7 -11 41 -46 97
-70 l27 -12 0 61 c0 40 -7 73 -20 99 -22 43 -78 86 -122 94 -26 4 -28 2 -30
-27z"/>
<path d="M1825 5086 c-28 -13 -63 -37 -77 -54 -30 -35 -74 -122 -84 -166 l-7
-29 106 6 c116 6 154 20 200 71 33 35 52 75 61 126 5 32 3 38 -23 53 -42 24
-116 22 -176 -7z"/>
<path d="M8082 5092 c-30 -16 -32 -19 -26 -57 15 -98 65 -160 150 -185 56 -17
214 0 214 22 0 21 -60 134 -86 162 -63 66 -182 94 -252 58z"/>
<path d="M7446 5060 c-49 -59 -60 -160 -25 -236 15 -30 41 -60 76 -86 29 -23
56 -39 58 -36 2 2 12 38 22 79 23 97 21 169 -6 211 -19 31 -84 98 -94 98 -3 0
-17 -14 -31 -30z"/>
<path d="M6724 5016 c-90 -59 -120 -140 -88 -240 31 -99 93 -147 73 -56 -10
45 2 153 26 219 8 24 15 52 15 63 0 12 4 16 11 12 19 -11 3 -198 -21 -262 -27
-70 -8 -65 44 12 32 48 39 67 39 109 1 29 -8 77 -18 107 -11 30 -18 58 -17 63
4 13 -12 6 -64 -27z"/>
<path d="M7724 5040 c-75 -16 -71 -33 12 -49 49 -10 80 -24 123 -56 57 -42
101 -92 101 -114 0 -6 5 -11 10 -11 6 0 10 -8 10 -17 0 -13 -8 -8 -29 17 -52
63 -65 75 -116 107 -50 32 -115 52 -167 53 -25 0 -28 -4 -28 -33 0 -64 94
-178 175 -212 30 -13 229 -25 239 -15 8 9 -23 119 -49 175 -57 120 -165 179
-281 155z"/>
<path d="M2233 5016 c-87 -28 -143 -96 -179 -213 -14 -47 -24 -86 -22 -87 1
-2 42 -9 90 -16 79 -12 94 -11 153 5 36 9 72 24 80 31 7 8 17 14 22 14 11 0
67 69 85 105 17 34 31 108 19 101 -4 -3 -37 -8 -72 -11 -136 -12 -179 -33
-264 -130 -32 -36 -59 -64 -61 -62 -8 8 30 69 73 117 74 82 120 103 232 108
l95 5 -40 20 c-49 25 -154 32 -211 13z"/>
<path d="M2902 4964 c-63 -31 -124 -90 -154 -147 -18 -34 -23 -64 -26 -149 -3
-79 -1 -108 8 -108 7 0 9 -8 5 -19 -10 -34 11 -32 81 7 179 99 244 219 198
371 -14 49 -16 52 -30 34 -14 -17 -15 -16 -11 10 5 34 -5 34 -71 1z"/>
<path d="M3105 4963 c-20 -31 -31 -104 -20 -130 10 -22 12 -29 14 -46 0 -8 23
-37 50 -66 l49 -53 15 24 c26 40 40 131 27 177 -11 42 -80 121 -105 121 -7 0
-21 -12 -30 -27z"/>
<path d="M7150 4970 c0 -6 27 -36 60 -66 49 -47 109 -124 96 -124 -2 0 -44 40
-93 90 -56 55 -94 85 -99 80 -5 -5 -7 -42 -3 -84 8 -102 38 -147 122 -186 34
-15 86 -31 115 -34 l54 -7 -7 58 c-16 145 -53 214 -134 256 -55 27 -111 36
-111 17z"/>
<path d="M6883 4913 c-24 -32 -28 -45 -28 -102 1 -98 50 -173 163 -251 32 -21
34 -21 47 -4 15 22 25 84 25 168 0 82 -36 155 -98 196 -25 17 -53 30 -63 30
-10 0 -31 -17 -46 -37z m137 -157 c0 -26 -6 -18 -14 19 -5 22 -4 26 4 15 5 -8
10 -24 10 -34z"/>
<path d="M5250 3565 c0 -5 5 -17 10 -25 5 -8 10 -10 10 -5 0 6 -5 17 -10 25
-5 8 -10 11 -10 5z"/>
<path d="M5281 3515 c0 -11 4 -29 9 -40 l9 -20 0 20 c0 11 -4 29 -9 40 l-9 20
0 -20z"/>
<path d="M5246 3354 c-4 -9 -4 -19 -2 -22 10 -9 36 8 36 23 0 20 -26 19 -34
-1z"/>
<path d="M5090 3330 c0 -5 5 -10 10 -10 6 0 10 5 10 10 0 6 -4 10 -10 10 -5 0
-10 -4 -10 -10z"/>
<path d="M5073 3306 c3 -7 1 -18 -5 -24 -18 -18 6 -19 40 -1 24 12 28 18 17
23 -8 3 -15 0 -15 -7 0 -7 -5 -4 -11 6 -12 20 -34 23 -26 3z"/>
<path d="M5090 3266 c0 -2 7 -7 16 -10 8 -3 12 -2 9 4 -6 10 -25 14 -25 6z"/>
<path d="M5026 3234 c-20 -20 -20 -25 1 -17 10 4 14 2 9 -5 -7 -12 32 -38 42
-28 3 3 0 6 -7 6 -7 0 -10 4 -6 9 3 6 -3 14 -12 20 -16 9 -16 12 -3 21 9 6 10
10 3 10 -6 0 -19 -7 -27 -16z"/>
<path d="M2483 3224 c-28 -7 -81 -66 -89 -101 -5 -17 1 -51 16 -94 12 -37 20
-71 16 -77 -3 -6 7 -15 22 -20 16 -5 45 -24 66 -42 35 -31 37 -32 55 -15 11 9
30 16 43 15 40 -4 45 -1 52 32 3 17 13 39 21 48 12 13 13 23 4 48 -10 28 -9
71 3 137 6 39 -134 85 -209 69z"/>
<path d="M5114 3203 c3 -3 -2 -12 -12 -20 -16 -13 -15 -13 3 -5 11 5 27 11 35
14 10 3 7 6 -9 11 -13 3 -20 3 -17 0z"/>
<path d="M5163 3173 c9 -2 23 -2 30 0 6 3 -1 5 -18 5 -16 0 -22 -2 -12 -5z"/>
<path d="M5168 3153 c7 -3 16 -2 19 1 4 3 -2 6 -13 5 -11 0 -14 -3 -6 -6z"/>
<path d="M5175 3113 c3 -8 5 -20 6 -26 0 -7 4 -3 9 8 12 29 12 32 -5 32 -10 0
-14 -6 -10 -14z"/>
<path d="M4773 2974 c-7 -7 -13 -23 -13 -36 1 -19 3 -17 16 11 16 38 15 46 -3
25z"/>
<path d="M4750 2903 c1 -14 30 -47 36 -41 3 4 -4 16 -15 27 -12 12 -21 18 -21
14z"/>
<path d="M4780 2905 c1 -20 28 -47 35 -35 4 7 2 17 -4 23 -6 6 -11 7 -11 2 0
-6 -5 -3 -10 5 -5 8 -10 11 -10 5z"/>
<path d="M4820 2901 c0 -5 7 -12 16 -15 22 -9 24 -8 24 9 0 8 -9 15 -20 15
-11 0 -20 -4 -20 -9z"/>
<path d="M4824 2820 c-1 -25 1 -27 17 -17 24 15 24 24 2 36 -15 7 -18 4 -19
-19z"/>
<path d="M5880 2604 c0 -12 5 -14 18 -9 9 5 51 11 92 15 l75 7 -92 1 c-79 2
-93 0 -93 -14z"/>
<path d="M6101 2534 c0 -11 3 -14 6 -6 3 7 2 16 -1 19 -3 4 -6 -2 -5 -13z"/>
<path d="M3830 2490 c0 -5 4 -10 9 -10 6 0 13 5 16 10 3 6 -1 10 -9 10 -9 0
-16 -4 -16 -10z"/>
<path d="M5405 2110 c-3 -5 -2 -10 4 -10 5 0 13 5 16 10 3 6 2 10 -4 10 -5 0
-13 -4 -16 -10z"/>
<path d="M5395 2080 c3 -5 8 -10 11 -10 2 0 4 5 4 10 0 6 -5 10 -11 10 -5 0
-7 -4 -4 -10z"/>
<path d="M5530 2080 c0 -5 5 -10 10 -10 6 0 10 -7 10 -17 0 -9 3 -14 6 -10 8
8 -5 47 -17 47 -5 0 -9 -4 -9 -10z"/>
<path d="M6836 1050 c-76 -13 -78 -15 -72 -57 3 -21 5 -208 6 -415 l0 -378 75
0 75 0 0 185 c0 116 4 193 11 209 24 51 117 72 160 37 23 -19 24 -24 29 -223
l5 -203 73 -3 72 -3 -1 213 c-1 235 -5 259 -58 313 -60 62 -148 71 -235 26
-31 -17 -56 -27 -56 -23 -1 4 0 80 0 170 1 182 9 167 -84 152z"/>
<path d="M2035 997 c-103 -35 -188 -104 -230 -188 -39 -76 -59 -198 -47 -281
22 -146 109 -262 232 -308 59 -22 60 -23 60 -61 0 -32 -3 -39 -20 -39 -18 0
-20 -7 -20 -55 0 -41 4 -55 14 -55 8 0 21 -3 30 -6 9 -3 16 -1 16 5 0 6 -11
11 -25 11 -22 0 -25 4 -25 39 0 33 4 40 23 43 18 2 22 10 24 42 1 21 4 41 7
43 2 3 25 1 50 -2 46 -7 46 -8 46 -46 0 -38 1 -39 36 -39 35 0 35 -1 32 -37
-3 -35 -6 -38 -35 -41 -18 -2 -33 -6 -33 -10 0 -4 18 -6 40 -4 l40 4 0 54 0
54 -35 0 c-32 0 -35 2 -35 30 0 32 4 35 57 44 31 5 33 3 94 -95 34 -55 63 -98
66 -96 2 3 -21 44 -52 93 -30 48 -55 94 -55 101 0 13 56 27 86 21 11 -2 38
-36 63 -80 l45 -77 40 67 c22 37 44 70 50 74 13 9 100 11 108 2 4 -3 -21 -49
-53 -101 -33 -53 -58 -97 -55 -100 2 -2 21 24 42 59 20 35 51 83 68 107 l30
45 -3 152 c-2 134 0 158 17 198 28 63 92 93 142 66 16 -8 19 -4 29 38 22 99
18 112 -35 112 -48 0 -95 -22 -126 -59 -15 -17 -29 -31 -32 -31 -3 0 -6 17 -6
38 0 21 -2 41 -5 43 -2 3 -33 1 -68 -4 l-64 -10 5 -263 5 -263 -42 -71 c-23
-38 -44 -70 -46 -70 -2 0 -22 31 -45 69 -22 38 -45 71 -51 73 -6 2 7 12 30 22
l41 19 0 173 0 173 -134 3 -134 3 -4 -25 c-2 -14 -1 -43 2 -65 l5 -40 55 0 55
0 0 -69 0 -69 -40 -14 c-89 -32 -217 -1 -283 69 -68 74 -81 240 -25 339 25 45
41 60 92 87 92 47 173 42 262 -17 24 -16 49 -27 55 -23 7 4 27 27 45 51 23 33
29 49 22 60 -5 9 -44 34 -86 55 -71 36 -84 39 -175 42 -63 3 -111 -1 -137 -9z"/>
<path d="M787 993 c-4 -3 -7 -177 -7 -385 l0 -378 -45 0 -45 0 2 -117 2 -118
3 112 4 113 37 0 c64 0 71 -12 75 -125 l3 -100 2 103 2 102 113 0 112 0 15
-33 c11 -23 23 -33 43 -35 35 -4 77 22 77 48 0 17 7 20 40 20 l40 0 0 43 c0
23 3 52 6 64 l6 23 -168 2 -169 3 0 100 0 100 138 3 138 3 -3 62 -3 62 -131 3
c-154 3 -149 -1 -138 122 l7 70 153 0 154 0 0 70 0 70 -228 0 c-126 0 -232 -3
-235 -7z m367 -775 c21 -30 20 -55 -3 -68 -28 -14 -57 -12 -75 6 -21 21 -20
40 4 64 26 26 55 25 74 -2z"/>
<path d="M4472 598 l3 -393 73 0 74 0 1 140 2 140 96 6 c137 9 204 41 255 121
65 103 43 246 -49 318 -58 46 -129 60 -299 60 l-158 0 2 -392z m349 224 c36
-40 45 -88 26 -135 -21 -50 -65 -70 -152 -71 l-70 -1 -3 114 c-1 63 -1 120 1
126 3 7 32 8 87 4 77 -5 85 -8 111 -37z"/>
<path d="M9130 911 l-65 -16 0 -63 c0 -67 2 -65 -67 -65 -15 0 -18 -9 -18 -58
l0 -59 40 0 40 0 0 -167 c0 -147 2 -171 20 -207 11 -23 32 -49 46 -60 51 -36
201 -31 233 8 16 20 -18 109 -39 101 -44 -18 -69 -16 -89 4 -19 19 -21 32 -21
171 l0 150 68 0 69 0 2 55 2 55 -38 1 c-21 1 -45 3 -53 4 -8 1 -24 3 -35 3
-18 2 -20 8 -17 73 2 39 0 75 -5 79 -4 4 -37 0 -73 -9z"/>
<path d="M3080 761 c-56 -22 -110 -50 -110 -56 0 -5 47 -83 55 -93 2 -2 26 8
54 22 83 43 160 32 180 -25 19 -54 17 -56 -67 -61 -152 -11 -233 -64 -247
-163 -23 -151 164 -252 299 -160 43 29 46 30 46 11 0 -36 77 -59 120 -36 36
19 42 46 20 87 -18 33 -20 56 -20 194 0 144 -2 159 -23 200 -34 63 -89 92
-186 95 -55 3 -88 -2 -121 -15z m174 -307 c11 -4 16 -19 16 -50 0 -58 -30 -93
-87 -101 -35 -5 -45 -2 -67 20 -54 54 -23 114 64 127 30 4 56 8 57 9 1 0 8 -2
17 -5z"/>
<path d="M3576 767 l-58 -11 6 -50 c3 -28 6 -153 6 -278 l0 -228 70 0 70 0 0
183 c0 203 7 230 69 262 27 14 35 14 66 1 57 -24 65 -56 65 -266 l0 -181 72 3
73 3 0 190 c1 203 5 222 52 244 33 15 75 14 100 -4 32 -23 43 -90 43 -270 l0
-166 71 2 70 2 -3 221 c-3 205 -5 224 -25 261 -46 85 -159 120 -245 75 -24
-12 -53 -31 -66 -43 l-22 -21 -33 32 c-78 75 -186 71 -274 -11 l-23 -20 0 41
c0 28 -4 42 -12 41 -7 -1 -39 -7 -72 -12z"/>
<path d="M5207 770 c-55 -14 -137 -51 -137 -62 0 -13 38 -86 49 -92 5 -4 31 5
57 19 56 30 122 33 152 8 12 -10 24 -34 27 -54 l7 -36 -85 -6 c-175 -12 -262
-94 -235 -222 12 -55 36 -86 88 -112 71 -37 149 -30 222 19 26 18 27 18 33 -1
3 -10 19 -24 35 -31 62 -26 146 34 108 77 -13 14 -17 54 -20 195 -4 171 -5
177 -31 217 -15 23 -45 50 -69 62 -48 25 -143 33 -201 19z m151 -367 c2 -42
-1 -55 -19 -72 -26 -24 -77 -36 -108 -26 -12 3 -29 17 -37 30 -13 20 -14 30
-4 60 6 19 12 35 13 35 1 0 20 7 42 15 22 8 56 14 75 12 35 -2 35 -2 38 -54z"/>
<path d="M5855 764 c-21 -8 -49 -23 -60 -34 -29 -27 -35 -25 -35 11 l0 31 -62
-7 c-35 -4 -66 -10 -71 -14 -4 -4 -6 -129 -5 -277 l3 -269 73 -3 72 -3 0 181
c0 196 6 222 54 254 51 33 128 14 146 -37 5 -17 10 -111 10 -214 l0 -184 73 3
72 3 0 220 c0 208 -2 222 -23 262 -43 82 -146 114 -247 77z"/>
<path d="M6397 766 c-58 -21 -114 -62 -142 -104 -80 -121 -69 -289 25 -383 26
-26 62 -55 80 -64 44 -23 166 -31 216 -15 36 12 101 53 116 74 3 5 -11 28 -32
50 l-39 40 -39 -22 c-114 -64 -223 7 -223 145 0 137 99 204 214 143 l47 -25
17 24 c10 14 26 37 36 52 l18 28 -45 26 c-80 47 -171 58 -249 31z"/>
<path d="M7490 762 c-55 -21 -110 -50 -110 -59 0 -14 42 -93 50 -93 4 0 32 11
62 25 96 45 178 22 178 -49 l0 -33 -73 -6 c-164 -14 -247 -77 -247 -187 0 -97
62 -161 161 -168 63 -5 136 15 159 43 10 13 17 10 40 -15 33 -36 70 -39 118
-10 38 23 38 24 12 57 -18 23 -20 41 -20 182 0 86 -5 174 -11 196 -14 51 -73
110 -124 124 -56 15 -142 12 -195 -7z m183 -314 c-2 -5 -3 -31 -3 -58 0 -46
-3 -52 -32 -71 -36 -22 -96 -21 -123 1 -21 18 -19 83 3 103 30 28 162 48 155
25z"/>
<path d="M8590 761 c-47 -15 -96 -36 -109 -47 -7 -6 34 -94 45 -98 7 -3 31 5
54 16 23 12 64 23 90 26 42 4 52 1 74 -21 16 -16 26 -37 26 -56 0 -29 -2 -30
-57 -36 -90 -9 -165 -26 -196 -44 -44 -25 -69 -74 -69 -132 0 -66 24 -118 70
-149 32 -21 48 -25 117 -25 73 0 83 3 119 29 34 27 39 28 47 13 29 -50 87 -63
130 -28 22 18 23 21 9 43 -11 17 -16 68 -20 210 l-5 186 -30 44 c-59 84 -169
110 -295 69z m180 -352 c0 -64 -11 -85 -55 -99 -73 -24 -132 13 -121 74 9 47
57 72 144 75 l32 1 0 -51z"/>
<path d="M7864 750 c2 -8 23 -60 46 -115 99 -236 170 -418 170 -436 0 -29 -36
-95 -62 -113 -12 -9 -39 -16 -60 -16 -34 0 -38 -3 -46 -32 l-8 -33 109 -3 c75
-2 114 1 124 10 21 17 54 86 103 213 23 61 55 144 70 185 16 41 45 120 64 175
19 55 41 117 50 138 l16 37 -60 2 c-33 1 -68 2 -77 2 -13 1 -30 -40 -79 -187
-34 -104 -64 -190 -66 -193 -3 -2 -14 26 -26 63 -33 110 -102 297 -113 308 -5
5 -43 9 -85 10 -62 0 -74 -3 -70 -15z"/>
<path d="M1334 567 c-3 -13 -4 -41 -2 -63 l3 -39 168 -3 167 -2 0 65 0 65
-165 0 c-164 0 -165 0 -171 -23z"/>
<path d="M1632 113 l2 -118 3 113 4 113 52 -3 52 -3 0 -81 0 -82 24 24 c54 54
150 36 188 -36 18 -33 23 -38 23 -21 0 13 -15 38 -33 56 -42 42 -94 53 -148
32 l-39 -15 0 69 0 69 -65 0 -65 0 2 -117z"/>
<path d="M10061 204 c0 -11 3 -14 6 -6 3 7 2 16 -1 19 -3 4 -6 -2 -5 -13z"/>
<path d="M1054 106 c-3 -7 -3 -35 -1 -62 l3 -49 2 53 2 52 54 0 55 0 4 -52 3
-53 2 63 2 62 -60 0 c-42 0 -62 -4 -66 -14z"/>
<path d="M1304 100 c-26 -13 -49 -35 -63 -60 -12 -22 -19 -40 -14 -40 4 0 15
15 23 32 34 72 126 97 189 50 l31 -23 0 23 c0 21 5 23 50 23 l50 0 0 -52 c0
-29 5 -53 10 -53 6 0 10 27 10 60 l0 60 -65 0 c-50 0 -65 -3 -65 -14 0 -13 -4
-13 -35 0 -46 19 -72 18 -121 -6z"/>
<path d="M1373 12 c-6 -4 9 -7 34 -8 27 -1 39 2 31 7 -16 11 -49 11 -65 1z"/>
<path d="M1781 11 c-8 -5 1 -8 27 -7 23 0 35 4 29 8 -16 10 -39 10 -56 -1z"/>
</g>
</svg>
